<svg version="1.1" id="Layer_1" xmlns="http://www.w3.org/2000/svg" xmlns:xlink="http://www.w3.org/1999/xlink" x="0px" y="0px"
	 width="100%" viewBox="0 0 888 213" enable-background="new 0 0 888 213" xml:space="preserve">
<path fill="#000000" opacity="1.000000" stroke="none" 
	d="
M651.000000,214.000000 
	C434.049164,214.000000 217.598312,214.000000 1.073729,214.000000 
	C1.073729,143.065338 1.073729,72.130577 1.073729,1.097908 
	C296.999969,1.097908 593.000000,1.097908 888.972961,1.097908 
	C888.972961,72.068314 888.972961,143.034164 888.972961,214.000000 
	C809.797302,214.000000 730.648621,214.000000 651.000000,214.000000 
M110.752274,29.335600 
	C109.990997,28.971201 109.229713,28.606802 108.468437,28.242401 
	C108.356468,28.513411 108.103401,28.988958 108.154213,29.024008 
	C108.704208,29.403400 109.301933,29.713579 109.691551,30.776514 
	C109.127731,32.946728 108.529106,35.108715 108.013535,37.290329 
	C107.717766,38.541874 107.845978,40.779453 107.290703,40.947746 
	C101.283447,42.768421 105.210907,46.705482 105.400238,49.662838 
	C105.553658,52.059387 106.748337,54.384315 106.940392,56.784283 
	C107.521149,64.041527 107.418564,64.048950 114.568527,63.999603 
	C115.537376,63.992916 116.506317,63.998684 117.562798,63.998684 
	C119.307137,55.672882 120.977264,47.701286 122.678604,39.580704 
	C120.473190,39.709801 118.935493,39.799812 117.693405,39.872520 
	C117.827827,37.869164 117.935020,36.271633 118.065605,34.325500 
	C116.671844,34.994698 115.629097,35.495361 115.051918,35.772484 
	C113.470749,33.609703 112.151970,31.805841 110.752274,29.335600 
M458.853516,160.631485 
	C459.668762,153.781982 458.799561,147.614517 451.776917,144.183640 
	C459.880280,133.625168 456.632141,121.870613 444.866608,120.283333 
	C435.129486,118.969704 425.074127,120.014755 415.293762,120.014755 
	C415.293762,137.014633 415.293762,153.406845 415.293762,170.000015 
	C424.389008,170.000015 433.192139,170.053543 441.993713,169.959686 
	C444.012695,169.938141 446.026215,169.409744 448.790771,169.008362 
	C453.415253,168.127899 456.309906,165.222763 458.853516,160.631485 
M157.847473,186.976852 
	C164.593445,187.317902 171.347168,188.055313 178.083908,187.923782 
	C196.440994,187.565384 207.944824,176.824203 208.757980,159.503220 
	C209.756500,138.234024 209.080170,116.881660 208.919586,95.566818 
	C208.891174,91.795967 206.638382,89.036674 202.490753,89.067902 
	C199.582947,89.089798 196.191696,88.918694 193.913208,90.306396 
	C191.683578,91.664360 190.590149,94.887894 189.047363,97.218002 
	C179.533066,85.617752 157.942245,87.021431 148.688217,94.119614 
	C141.438354,99.680534 137.601990,107.437202 136.410202,116.284927 
	C134.786102,128.341934 136.157745,139.962006 144.301331,149.736206 
	C151.161377,157.969849 160.495605,159.716309 170.619598,159.007568 
	C178.056549,158.486954 184.886566,156.955246 188.402863,149.254974 
	C188.670120,148.669678 189.574036,148.375122 190.730881,147.557495 
	C190.845367,149.671341 190.987000,151.097473 190.990005,152.523895 
	C191.023773,168.539719 181.643768,176.442078 165.972961,173.052597 
	C160.419434,171.851425 154.907455,170.458939 149.372528,169.170898 
	C144.325287,167.996338 141.324799,170.044830 140.304733,175.270996 
	C140.868240,177.009140 140.926300,179.709625 142.083527,180.317429 
	C146.874237,182.833740 151.997375,184.717163 157.847473,186.976852 
M227.000305,66.788765 
	C227.000305,95.435219 226.998764,124.081665 227.001404,152.728119 
	C227.002075,160.052567 228.838547,161.980743 235.801865,161.999985 
	C243.246078,162.020569 245.977997,159.568558 245.993210,152.748962 
	C246.017731,141.756775 245.945129,130.764099 246.017334,119.772331 
	C246.074387,111.089081 252.335571,103.894989 260.828613,103.058144 
	C268.826813,102.270073 274.696899,106.711014 274.941803,117.857376 
	C275.201508,129.676666 274.993561,141.506088 275.003082,153.331085 
	C275.007751,159.147476 277.103027,161.760361 281.906464,161.999207 
	C290.340424,162.418579 293.841583,160.544815 293.864319,154.111084 
	C293.918854,138.696350 293.790344,123.249954 292.821228,107.873985 
	C292.219727,98.330750 284.747467,90.202179 275.972351,89.240509 
	C265.243286,88.064705 254.375610,88.144180 245.999527,97.813843 
	C245.999527,86.755638 246.060959,76.430511 245.973267,66.106644 
	C245.930298,61.047356 242.922455,58.069721 238.155060,58.000122 
	C229.048279,57.867176 227.425262,59.011513 227.000305,66.788765 
M53.500000,161.000000 
	C63.324989,160.999985 73.150063,161.024704 82.974937,160.990875 
	C89.063591,160.969910 91.009758,158.861282 90.999260,152.470932 
	C90.990456,147.110840 88.785332,145.022903 82.950485,145.008652 
	C71.127258,144.979767 59.303913,145.000015 47.480618,145.000000 
	C45.393364,145.000000 43.306114,145.000000 40.999546,145.000000 
	C40.999546,119.655891 40.999741,95.024887 40.999443,70.393883 
	C40.999329,60.850204 38.875408,58.755512 29.449862,59.000408 
	C24.109131,59.139172 22.022789,61.161415 22.016426,66.571526 
	C21.982353,95.546890 21.980696,124.522346 22.018126,153.497711 
	C22.025070,158.873016 24.134363,160.939072 29.519642,160.983582 
	C37.179283,161.046921 44.839836,160.999878 53.500000,161.000000 
M356.521057,100.028893 
	C356.466736,99.429047 356.254303,98.792946 356.382263,98.234879 
	C357.874969,91.723465 356.589050,90.010193 350.112671,90.001328 
	C345.177673,89.994568 340.242645,89.999977 334.999634,89.999977 
	C334.999634,85.074936 335.012787,80.768631 334.996521,76.462440 
	C334.972137,69.999413 333.119720,68.065430 326.932770,68.000084 
	C319.068634,67.917038 316.108124,70.195786 316.013000,76.525414 
	C315.946503,80.949585 316.000183,85.375557 316.000183,89.683739 
	C309.995636,90.882256 301.524109,86.850365 301.308411,96.616249 
	C301.082550,106.840790 310.029297,103.142151 316.000031,104.286255 
	C316.000031,105.926437 315.964508,107.384064 316.005676,108.839523 
	C316.328827,120.266052 316.270721,131.722733 317.149872,143.106827 
	C317.669373,149.833740 321.268433,155.260025 327.443512,158.848404 
	C335.310974,163.420242 343.826538,162.213913 352.111755,161.719833 
	C357.723755,161.385162 360.868378,156.447433 359.918854,150.886047 
	C359.311584,147.329102 357.954376,144.761444 353.030548,145.784805 
	C342.569885,147.958908 335.817230,144.280136 335.204102,135.622940 
	C334.468781,125.239670 335.030396,114.764557 335.030396,103.999405 
	C340.568756,103.999405 345.572174,104.330231 350.496399,103.849609 
	C352.714386,103.633133 354.774384,101.797920 356.521057,100.028893 
M469.000000,65.691933 
	C468.881836,64.466110 468.763641,63.240288 468.685364,62.428310 
	C463.198700,60.599533 460.692352,63.303120 458.827423,67.477020 
	C457.717865,69.960289 456.182129,72.257317 454.788147,74.608559 
	C450.766174,81.392487 446.718903,88.161438 442.384979,95.433945 
	C435.462952,83.911728 428.933472,73.042961 422.477417,62.296398 
	C420.012482,62.296398 417.601990,62.296398 415.289795,62.296398 
	C415.289795,79.007339 415.289795,95.420357 415.289795,111.702881 
	C417.994659,111.702881 420.402435,111.702881 423.210632,111.702881 
	C423.210632,100.430740 423.210632,89.451370 423.210632,77.695427 
	C428.290436,86.323410 432.815308,94.242104 437.574890,102.017105 
	C441.199036,107.937325 443.698822,107.626236 447.240417,101.410706 
	C451.483643,93.963875 455.946289,86.642075 460.313873,79.266121 
	C460.576111,79.351395 460.838348,79.436661 461.100586,79.521927 
	C461.100586,90.248703 461.100586,100.975479 461.100586,111.770317 
	C463.871216,111.770317 466.275757,111.770317 469.000000,111.770317 
	C469.000000,96.579376 469.000000,81.616005 469.000000,65.691933 
M585.357117,132.140396 
	C579.085632,137.730225 572.814209,143.320038 565.743408,149.622284 
	C565.743408,137.972687 565.743408,127.551895 565.743408,117.310150 
	C562.976746,117.310150 560.572266,117.310150 558.297241,117.310150 
	C558.297241,135.031921 558.297241,152.442078 558.297241,169.702026 
	C561.017639,169.702026 563.433655,169.702026 566.269958,169.702026 
	C564.561890,162.411972 567.203430,157.356674 573.637390,153.737915 
	C577.100891,158.017639 580.791809,161.995285 583.791443,166.439545 
	C587.186462,171.469543 591.498657,170.049133 596.481873,169.537430 
	C590.596313,161.998886 585.133789,155.002274 579.154419,147.343628 
	C584.443359,142.166931 589.485657,137.231598 594.820862,132.009644 
	C591.731140,132.009644 588.954651,132.009644 585.357117,132.140396 
M842.017822,102.050316 
	C851.354736,114.883537 867.119568,116.759003 876.169739,105.837997 
	C874.912109,104.162552 873.610535,102.428558 872.228882,100.587975 
	C867.415344,105.119141 862.421631,107.336830 856.493652,104.749084 
	C852.858704,103.162285 848.861450,101.547371 849.132935,95.894997 
	C859.104553,95.894997 868.999084,95.894997 878.837585,95.894997 
	C880.133850,80.984764 869.029358,69.725189 852.908264,74.151001 
	C844.170654,76.549782 836.837891,88.086189 842.017822,102.050316 
M466.045319,137.437897 
	C466.912994,138.958115 467.780670,140.478333 468.536255,141.802155 
	C473.276978,140.514359 477.857300,138.408844 482.511719,138.229919 
	C487.983765,138.019562 491.107605,142.543335 490.448883,148.000595 
	C485.491760,148.000595 480.502777,147.884750 475.521698,148.033524 
	C470.648651,148.179077 466.969788,150.842789 465.470764,155.215652 
	C464.066437,159.312256 464.593658,163.487259 468.303162,166.896561 
	C473.905548,172.045563 482.651611,172.414566 490.597565,167.458832 
	C492.087769,172.370071 495.928711,168.984085 498.997253,170.263336 
	C498.997253,161.752869 499.517731,153.755280 498.819336,145.865616 
	C498.330963,140.348572 496.799072,134.632446 490.152649,132.616470 
	C481.410309,129.964783 473.375793,131.118134 466.045319,137.437897 
M729.019165,80.019913 
	C733.272339,81.885681 737.388977,83.841362 735.530762,90.000496 
	C730.478760,90.000496 725.477966,89.690315 720.535461,90.093460 
	C716.165283,90.449913 712.261902,92.367836 711.070496,97.100822 
	C709.467651,103.468529 711.337158,108.270370 716.103271,110.596809 
	C723.198303,114.060005 730.087952,112.994247 736.731018,109.189941 
	C737.838135,112.216393 737.838135,112.216393 744.000000,111.625694 
	C744.000000,109.709488 744.000244,107.749802 743.999939,105.790123 
	C743.998901,98.805000 744.314697,91.797546 743.825073,84.846848 
	C743.653320,82.408623 741.933228,79.709534 740.176636,77.821365 
	C734.637024,71.867111 718.340149,71.524345 712.751282,77.112053 
	C712.074463,77.788719 712.000610,79.601166 712.358398,80.642998 
	C712.790955,81.902382 713.981384,82.901451 714.325012,83.344460 
	C719.229248,82.160904 723.703491,81.081131 729.019165,80.019913 
M567.990173,100.182182 
	C571.350586,109.390312 579.752747,113.445686 590.538818,112.094688 
	C605.363098,110.237885 610.288757,94.061478 604.119873,82.597282 
	C599.770996,74.515434 587.177368,70.905190 578.333740,74.846512 
	C567.904419,79.494553 565.087830,88.518005 567.990173,100.182182 
M683.816650,73.031433 
	C680.384094,74.203087 676.951538,75.374748 673.526550,76.543808 
	C672.187439,71.668900 668.235596,74.845100 665.359131,73.959534 
	C665.359131,86.902534 665.359131,99.420822 665.359131,111.824600 
	C668.007263,111.824600 670.294678,111.824600 673.000000,111.824600 
	C673.000000,108.376976 673.000000,105.089287 673.000000,101.801598 
	C673.000000,98.472755 672.901062,95.140343 673.021301,91.815849 
	C673.249939,85.492226 678.749634,79.923492 684.546448,80.008133 
	C690.476379,80.094711 693.990295,84.431267 693.998413,91.693268 
	C694.005981,98.445679 694.000000,105.198112 694.000000,111.654190 
	C697.093018,111.654190 699.495056,111.654190 702.000000,111.654190 
	C702.000000,104.326950 702.134827,97.341927 701.970764,90.363930 
	C701.666565,77.426346 695.994019,73.792946 683.816650,73.031433 
M539.878113,133.351364 
	C532.607971,130.313431 525.551697,130.162933 518.717346,135.183762 
	C517.225464,129.541000 513.280396,132.705872 510.260071,132.124496 
	C510.260071,144.969879 510.260071,157.367508 510.260071,169.741638 
	C512.930359,169.741638 515.333252,169.741638 518.000000,169.741638 
	C518.000000,163.025879 517.907532,156.563034 518.024780,150.103989 
	C518.154175,142.974731 523.143005,138.015503 529.676208,138.294617 
	C535.633057,138.549133 538.995667,142.769180 538.999329,150.004364 
	C539.002625,156.601822 539.000000,163.199280 539.000000,169.730011 
	C541.953613,169.730011 544.355652,169.730011 546.999634,169.730011 
	C546.999634,161.834869 547.291321,154.191818 546.895691,146.584503 
	C546.637512,141.619568 545.178040,136.812592 539.878113,133.351364 
M771.599976,73.996346 
	C768.796082,75.074356 765.992249,76.152367 763.159119,77.241608 
	C763.033691,76.409439 762.857300,75.239456 762.691101,74.137306 
	C760.360962,74.137306 758.405579,74.137306 756.302917,74.137306 
	C756.302917,86.804749 756.302917,99.333061 756.302917,111.692780 
	C759.022461,111.692780 761.425171,111.692780 763.999939,111.692780 
	C763.999939,104.250313 763.926453,97.112984 764.024597,89.978027 
	C764.095337,84.834373 767.225830,81.967171 773.923035,80.578560 
	C777.851929,79.763924 782.069824,81.904419 783.360168,85.970413 
	C784.322876,89.003998 784.786804,92.278542 784.932068,95.470383 
	C785.178955,100.895027 785.000000,106.339050 785.000000,111.745316 
	C787.590759,111.745316 789.659546,111.745316 792.000000,111.745316 
	C792.000000,103.370239 791.721985,95.234550 792.073853,87.126183 
	C792.469604,78.006241 782.005249,70.880470 771.599976,73.996346 
M106.000114,131.638336 
	C106.603958,141.712997 107.207809,151.787659 107.801857,161.698883 
	C112.018410,161.698883 115.421608,161.698883 118.814865,161.698883 
	C119.646759,144.687759 120.463875,127.978867 121.280930,111.271225 
	C115.373466,111.271225 110.306252,111.271225 105.000061,111.271225 
	C105.000061,114.675163 104.870064,117.817345 105.035896,120.943832 
	C105.208542,124.198685 105.666756,127.438393 106.000114,131.638336 
M520.217896,112.966888 
	C524.337402,110.961746 528.654724,109.270630 532.507690,106.842506 
	C535.130310,105.189674 534.645447,103.044495 531.551941,101.851196 
	C530.513733,101.450722 529.581909,100.774551 528.585876,100.215660 
	C520.725220,108.386589 513.730469,106.359047 509.710846,102.035965 
	C504.602753,96.542252 504.697937,90.200363 509.157227,84.477982 
	C513.954041,78.322411 519.986633,78.864342 529.150757,85.975777 
	C530.734741,84.448021 532.361511,82.878998 533.988281,81.309982 
	C532.186218,79.519081 530.596741,77.421593 528.541077,75.996544 
	C523.049622,72.189743 517.113159,72.503212 510.962585,74.465210 
	C498.137390,78.556396 495.110138,93.774193 500.864410,103.412743 
	C505.139252,110.573257 512.033752,112.048508 520.217896,112.966888 
M823.145203,73.028603 
	C819.663818,73.620132 815.996094,73.703987 812.736877,74.900642 
	C803.813354,78.177063 800.477844,84.940331 800.902344,94.330650 
	C801.341919,104.053268 806.082153,109.734306 818.272888,112.571632 
	C823.881836,113.877083 833.766785,110.963562 836.851257,103.522987 
	C834.771179,102.318001 832.703918,101.120399 830.651245,99.931290 
	C827.911926,104.137207 822.659302,106.534248 818.861877,105.405785 
	C812.242554,103.438751 808.318359,98.740746 808.202820,92.644859 
	C808.105042,87.483139 812.596313,82.419243 818.993469,80.478668 
	C822.960876,79.275139 827.796814,81.528633 830.888611,86.195023 
	C832.943909,84.684601 834.987549,83.182739 836.715942,81.912590 
	C834.356384,75.846207 829.063477,74.744621 823.145203,73.028603 
M385.571228,15.000011 
	C383.134644,15.000011 380.698090,15.000011 376.866547,15.000011 
	C381.521088,20.006344 386.634521,16.644705 391.000000,18.676111 
	C391.000000,20.399796 391.000000,22.352839 391.000000,24.305883 
	C391.000000,83.941391 390.999542,143.576889 391.002655,203.212402 
	C391.002747,204.710861 390.854095,206.248306 391.152924,207.689163 
	C391.277954,208.291824 392.391937,208.689346 393.656433,209.623474 
	C393.656433,144.341766 393.656433,79.850502 393.656433,15.000011 
	C391.119232,15.000011 388.818420,15.000011 385.571228,15.000011 
M624.000000,95.501480 
	C624.000000,90.400963 624.000000,85.300438 624.000000,79.831482 
	C627.986755,79.831482 631.411011,79.831482 634.721802,79.831482 
	C634.721802,77.706642 634.721802,75.967079 634.721802,73.859993 
	C631.018616,73.859993 627.586121,73.859993 624.188477,73.859993 
	C623.792786,65.820885 623.907471,65.783546 631.652466,64.927269 
	C633.138000,64.763039 634.689941,63.873520 635.864502,62.900204 
	C636.311707,62.529633 636.168274,60.417217 635.640747,60.057961 
	C630.194275,56.348709 618.858643,57.568352 616.431335,66.153740 
	C615.741638,68.593201 615.937195,71.282951 615.729492,73.824738 
	C613.664490,73.982414 611.907410,74.116577 610.285767,74.240395 
	C610.285767,76.323814 610.285767,78.069572 610.285767,79.850639 
	C612.312622,79.979393 614.057251,80.090218 616.165955,80.224167 
	C616.165955,90.984482 616.165955,101.403084 616.165955,111.713814 
	C618.978394,111.713814 621.383118,111.713814 624.000000,111.713814 
	C624.000000,106.452492 624.000000,101.475487 624.000000,95.501480 
M542.666687,111.934715 
	C545.074524,111.934715 547.482300,111.934715 550.000000,111.934715 
	C550.000000,105.019051 549.621033,98.682373 550.166260,92.426254 
	C550.423340,89.476746 551.798401,86.007446 553.860901,84.001411 
	C556.042786,81.879257 559.644165,81.216614 562.738159,79.867363 
	C562.738159,77.926743 562.738159,75.502548 562.738159,72.367981 
	C558.238892,73.810844 554.183411,75.111382 550.707581,76.226051 
	C548.511475,72.372124 545.091675,74.632843 542.049927,73.929794 
	C542.049927,86.687103 542.049927,98.949135 542.666687,111.934715 
M378.000000,134.500000 
	C378.000000,142.827225 378.000000,151.154465 378.000000,159.481689 
	C378.000000,167.808929 377.875977,176.138550 378.035492,184.462723 
	C378.189514,192.500488 377.341797,200.624222 379.277832,208.512573 
	C379.277832,145.415405 379.277832,82.318237 379.277832,19.221073 
	C378.851898,19.223089 378.425934,19.225103 378.000000,19.227119 
	C378.000000,57.318081 378.000000,95.409042 378.000000,134.500000 
M482.000000,101.477890 
	C482.000000,104.923279 482.000000,108.368668 482.000000,111.721924 
	C484.960754,111.721924 487.367340,111.721924 489.726196,111.721924 
	C489.726196,99.028961 489.726196,86.616035 489.726196,74.278831 
	C487.037872,74.278831 484.631226,74.278831 482.000000,74.278831 
	C482.000000,83.197845 482.000000,91.840164 482.000000,101.477890 
M653.000000,91.501060 
	C653.000000,85.751389 653.000000,80.001717 653.000000,74.231247 
	C650.440186,74.231247 648.377441,74.231247 646.325439,74.231247 
	C646.325439,86.953842 646.325439,99.442619 646.325439,111.674583 
	C648.720032,111.674583 650.783508,111.674583 653.000000,111.674583 
	C653.000000,105.066826 653.000000,98.783516 653.000000,91.501060 
M96.778717,80.003029 
	C96.061867,81.483574 95.345009,82.964127 94.377296,84.962784 
	C106.792145,84.962784 117.889000,84.966324 128.985794,84.942474 
	C129.264908,84.941879 129.543365,84.639374 129.742981,84.523582 
	C129.742981,83.068298 129.742981,81.668907 129.742981,80.000198 
	C118.904266,80.000198 108.319374,80.000198 96.778717,80.003029 
M116.475166,72.000000 
	C110.728821,72.000000 104.982475,72.000000 99.223007,72.000000 
	C99.223007,73.881348 99.223007,75.278641 99.223007,76.833481 
	C108.483368,76.833481 117.521912,76.833481 126.676811,76.833481 
	C126.676811,75.161430 126.676811,73.665771 126.676811,72.000000 
	C123.392769,72.000000 120.427742,72.000000 116.475166,72.000000 
M114.453651,102.000000 
	C111.371727,102.000000 108.289810,102.000000 105.237106,102.000000 
	C105.237106,104.920860 105.237106,107.309479 105.237106,109.643059 
	C110.637856,109.643059 115.794243,109.643059 120.664688,109.643059 
	C120.664688,106.893127 120.664688,104.505508 120.664688,102.000000 
	C118.692108,102.000000 117.054245,102.000000 114.453651,102.000000 
M123.932350,92.395836 
	C123.932350,90.994316 123.932350,89.592796 123.932350,88.236282 
	C116.006828,88.236282 108.627930,88.236282 101.216370,88.236282 
	C101.216370,89.878288 101.216370,91.271202 101.216370,92.956238 
	C108.672813,92.956238 115.918938,92.956238 123.932350,92.395836 
M117.412598,70.000000 
	C119.517975,70.000000 121.623352,70.000000 123.796204,70.000000 
	C123.796204,68.147026 123.796204,66.751190 123.796204,65.304062 
	C116.083153,65.304062 108.576012,65.304062 100.914764,65.304062 
	C101.034462,67.021873 101.132149,68.423859 101.241966,70.000000 
	C106.549324,70.000000 111.491211,70.000000 117.412598,70.000000 
M106.685364,95.000000 
	C105.569046,95.000000 104.452728,95.000000 102.991669,95.000000 
	C103.081535,96.925713 103.151390,98.422592 103.211784,99.716949 
	C109.786415,99.716949 115.834610,99.716949 121.724716,99.716949 
	C121.724716,98.033279 121.724716,96.637085 121.724716,95.000000 
	C116.851036,95.000000 112.249397,95.000000 106.685364,95.000000 
M650.343140,66.999931 
	C653.980164,67.266907 655.045105,64.599503 654.842163,62.002991 
	C654.552185,58.293747 651.499695,57.126137 648.382202,58.157284 
	C646.653687,58.729019 644.372131,60.801079 644.241882,62.356174 
	C643.989685,65.367874 645.838135,67.602310 650.343140,66.999931 
M483.721100,66.997719 
	C486.613586,66.960686 490.222504,67.781090 490.813934,63.711906 
	C491.058563,62.028893 489.753326,58.841808 488.559662,58.516647 
	C486.576019,57.976265 483.370056,58.468765 482.030487,59.843369 
	C480.112640,61.811443 479.843567,64.905319 483.721100,66.997719 
z"/>
<path fill="#E9720E" opacity="1.000000" stroke="none" 
	d="
M140.948990,174.895340 
	C141.324799,170.044830 144.325287,167.996338 149.372528,169.170898 
	C154.907455,170.458939 160.419434,171.851425 165.972961,173.052597 
	C181.643768,176.442078 191.023773,168.539719 190.990005,152.523895 
	C190.987000,151.097473 190.845367,149.671341 190.730881,147.557495 
	C189.574036,148.375122 188.670120,148.669678 188.402863,149.254974 
	C184.886566,156.955246 178.056549,158.486954 170.619598,159.007568 
	C160.495605,159.716309 151.161377,157.969849 144.301331,149.736206 
	C136.157745,139.962006 134.786102,128.341934 136.410202,116.284927 
	C137.601990,107.437202 141.438354,99.680534 148.688217,94.119614 
	C157.942245,87.021431 179.533066,85.617752 189.047363,97.218002 
	C190.590149,94.887894 191.683578,91.664360 193.913208,90.306396 
	C196.191696,88.918694 199.582947,89.089798 202.490753,89.067902 
	C206.638382,89.036674 208.891174,91.795967 208.919586,95.566818 
	C209.080170,116.881660 209.756500,138.234024 208.757980,159.503220 
	C207.944824,176.824203 196.440994,187.565384 178.083908,187.923782 
	C171.347168,188.055313 164.593445,187.317902 157.352356,186.560699 
	C156.104416,185.546249 155.428955,184.588959 154.586304,184.407333 
	C148.682983,183.134872 144.119659,180.038086 140.948990,174.895340 
M183.932495,141.998657 
	C188.443848,141.026123 190.866486,136.533905 189.982208,130.035156 
	C189.988052,126.711716 190.267731,123.361099 189.941162,120.070648 
	C189.314651,113.758255 186.733521,108.518005 180.832336,105.349716 
	C174.823792,102.123787 169.031494,102.299324 163.368103,106.132416 
	C156.136810,111.026688 154.418533,118.460976 155.109375,126.320885 
	C156.544418,142.647675 170.317993,149.119156 183.932495,141.998657 
z"/>
<path fill="#E9720E" opacity="1.000000" stroke="none" 
	d="
M227.000305,66.326874 
	C227.425262,59.011513 229.048279,57.867176 238.155060,58.000122 
	C242.922455,58.069721 245.930298,61.047356 245.973267,66.106644 
	C246.060959,76.430511 245.999527,86.755638 245.999527,97.813843 
	C254.375610,88.144180 265.243286,88.064705 275.972351,89.240509 
	C284.747467,90.202179 292.219727,98.330750 292.821228,107.873985 
	C293.790344,123.249954 293.918854,138.696350 293.864319,154.111084 
	C293.841583,160.544815 290.340424,162.418579 281.906464,161.999207 
	C277.103027,161.760361 275.007751,159.147476 275.003082,153.331085 
	C274.993561,141.506088 275.201508,129.676666 274.941803,117.857376 
	C274.696899,106.711014 268.826813,102.270073 260.828613,103.058144 
	C252.335571,103.894989 246.074387,111.089081 246.017334,119.772331 
	C245.945129,130.764099 246.017731,141.756775 245.993210,152.748962 
	C245.977997,159.568558 243.246078,162.020569 235.801865,161.999985 
	C228.838547,161.980743 227.002075,160.052567 227.001404,152.728119 
	C226.998764,124.081665 227.000305,95.435219 227.000305,66.326874 
z"/>
<path fill="#E9720E" opacity="1.000000" stroke="none" 
	d="
M53.000000,161.000000 
	C44.839836,160.999878 37.179283,161.046921 29.519642,160.983582 
	C24.134363,160.939072 22.025070,158.873016 22.018126,153.497711 
	C21.980696,124.522346 21.982353,95.546890 22.016426,66.571526 
	C22.022789,61.161415 24.109131,59.139172 29.449862,59.000408 
	C38.875408,58.755512 40.999329,60.850204 40.999443,70.393883 
	C40.999741,95.024887 40.999546,119.655891 40.999546,145.000000 
	C43.306114,145.000000 45.393364,145.000000 47.480618,145.000000 
	C59.303913,145.000015 71.127258,144.979767 82.950485,145.008652 
	C88.785332,145.022903 90.990456,147.110840 90.999260,152.470932 
	C91.009758,158.861282 89.063591,160.969910 82.974937,160.990875 
	C73.150063,161.024704 63.324989,160.999985 53.000000,161.000000 
z"/>
<path fill="#E9720E" opacity="1.000000" stroke="none" 
	d="
M356.713562,100.363037 
	C354.774384,101.797920 352.714386,103.633133 350.496399,103.849609 
	C345.572174,104.330231 340.568756,103.999405 335.030396,103.999405 
	C335.030396,114.764557 334.468781,125.239670 335.204102,135.622940 
	C335.817230,144.280136 342.569885,147.958908 353.030548,145.784805 
	C357.954376,144.761444 359.311584,147.329102 359.918854,150.886047 
	C360.868378,156.447433 357.723755,161.385162 352.111755,161.719833 
	C343.826538,162.213913 335.310974,163.420242 327.443512,158.848404 
	C321.268433,155.260025 317.669373,149.833740 317.149872,143.106827 
	C316.270721,131.722733 316.328827,120.266052 316.005676,108.839523 
	C315.964508,107.384064 316.000031,105.926437 316.000031,104.286255 
	C310.029297,103.142151 301.082550,106.840790 301.308411,96.616249 
	C301.524109,86.850365 309.995636,90.882256 316.000183,89.683739 
	C316.000183,85.375557 315.946503,80.949585 316.013000,76.525414 
	C316.108124,70.195786 319.068634,67.917038 326.932770,68.000084 
	C333.119720,68.065430 334.972137,69.999413 334.996521,76.462440 
	C335.012787,80.768631 334.999634,85.074936 334.999634,89.999977 
	C340.242645,89.999977 345.177673,89.994568 350.112671,90.001328 
	C356.589050,90.010193 357.874969,91.723465 356.382263,98.234879 
	C356.254303,98.792946 356.466736,99.429047 356.713562,100.363037 
z"/>
<path fill="#FFFFFF" opacity="1.000000" stroke="none" 
	d="
M469.000000,66.172287 
	C469.000000,81.616005 469.000000,96.579376 469.000000,111.770317 
	C466.275757,111.770317 463.871216,111.770317 461.100586,111.770317 
	C461.100586,100.975479 461.100586,90.248703 461.100586,79.521927 
	C460.838348,79.436661 460.576111,79.351395 460.313873,79.266121 
	C455.946289,86.642075 451.483643,93.963875 447.240417,101.410706 
	C443.698822,107.626236 441.199036,107.937325 437.574890,102.017105 
	C432.815308,94.242104 428.290436,86.323410 423.210632,77.695427 
	C423.210632,89.451370 423.210632,100.430740 423.210632,111.702881 
	C420.402435,111.702881 417.994659,111.702881 415.289795,111.702881 
	C415.289795,95.420357 415.289795,79.007339 415.289795,62.296398 
	C417.601990,62.296398 420.012482,62.296398 422.477417,62.296398 
	C428.933472,73.042961 435.462952,83.911728 442.384979,95.433945 
	C446.718903,88.161438 450.766174,81.392487 454.788147,74.608559 
	C456.182129,72.257317 457.717865,69.960289 458.827423,67.477020 
	C460.692352,63.303120 463.198700,60.599533 468.685364,62.428310 
	C468.763641,63.240288 468.881836,64.466110 469.000000,66.172287 
z"/>
<path fill="#FFFFFF" opacity="1.000000" stroke="none" 
	d="
M448.042267,169.114609 
	C446.026215,169.409744 444.012695,169.938141 441.993713,169.959686 
	C433.192139,170.053543 424.389008,170.000015 415.293762,170.000015 
	C415.293762,153.406845 415.293762,137.014633 415.293762,120.014755 
	C425.074127,120.014755 435.129486,118.969704 444.866608,120.283333 
	C456.632141,121.870613 459.880280,133.625168 451.776917,144.183640 
	C458.799561,147.614517 459.668762,153.781982 458.128479,160.855408 
	C454.283020,163.757767 451.162628,166.436188 448.042267,169.114609 
M450.650421,154.116776 
	C448.975708,150.400803 446.024475,148.218414 442.046082,148.065277 
	C435.803009,147.824966 429.543915,148.001495 423.227112,148.001495 
	C423.227112,153.215729 423.227112,157.940506 423.227112,163.000000 
	C429.719208,163.000000 435.989929,163.027542 442.260254,162.991806 
	C447.863800,162.959854 450.290863,160.656616 450.650421,154.116776 
M423.000000,134.470352 
	C423.000000,136.570053 423.000000,138.669769 423.000000,140.999725 
	C429.187958,140.999725 434.834412,141.194977 440.459442,140.932083 
	C444.300659,140.752563 447.301239,138.959579 447.998199,134.694153 
	C448.746368,130.115204 445.677429,127.815697 442.168152,127.231285 
	C435.952515,126.196190 429.577454,126.118523 423.000000,125.619797 
	C423.000000,128.880646 423.000000,131.190353 423.000000,134.470352 
z"/>
<path fill="#FFFFFF" opacity="1.000000" stroke="none" 
	d="
M585.767639,132.075012 
	C588.954651,132.009644 591.731140,132.009644 594.820862,132.009644 
	C589.485657,137.231598 584.443359,142.166931 579.154419,147.343628 
	C585.133789,155.002274 590.596313,161.998886 596.481873,169.537430 
	C591.498657,170.049133 587.186462,171.469543 583.791443,166.439545 
	C580.791809,161.995285 577.100891,158.017639 573.637390,153.737915 
	C567.203430,157.356674 564.561890,162.411972 566.269958,169.702026 
	C563.433655,169.702026 561.017639,169.702026 558.297241,169.702026 
	C558.297241,152.442078 558.297241,135.031921 558.297241,117.310150 
	C560.572266,117.310150 562.976746,117.310150 565.743408,117.310150 
	C565.743408,127.551895 565.743408,137.972687 565.743408,149.622284 
	C572.814209,143.320038 579.085632,137.730225 585.767639,132.075012 
z"/>
<path fill="#FFFFFF" opacity="1.000000" stroke="none" 
	d="
M842.006470,101.647034 
	C836.837891,88.086189 844.170654,76.549782 852.908264,74.151001 
	C869.029358,69.725189 880.133850,80.984764 878.837585,95.894997 
	C868.999084,95.894997 859.104553,95.894997 849.132935,95.894997 
	C848.861450,101.547371 852.858704,103.162285 856.493652,104.749084 
	C862.421631,107.336830 867.415344,105.119141 872.228882,100.587975 
	C873.610535,102.428558 874.912109,104.162552 876.169739,105.837997 
	C867.119568,116.759003 851.354736,114.883537 842.006470,101.647034 
M868.950256,89.999229 
	C869.406189,89.269737 870.408936,88.353745 870.233582,87.839531 
	C868.463989,82.650764 864.186523,79.675865 859.299011,80.000572 
	C853.978149,80.354065 849.765991,84.257652 848.587952,89.931366 
	C848.919800,89.952820 849.251709,89.992722 849.583557,89.993004 
	C855.740417,89.998116 861.897339,89.998512 868.950256,89.999229 
z"/>
<path fill="#FFFFFF" opacity="1.000000" stroke="none" 
	d="
M466.042572,137.046341 
	C473.375793,131.118134 481.410309,129.964783 490.152649,132.616470 
	C496.799072,134.632446 498.330963,140.348572 498.819336,145.865616 
	C499.517731,153.755280 498.997253,161.752869 498.997253,170.263336 
	C495.928711,168.984085 492.087769,172.370071 490.597565,167.458832 
	C482.651611,172.414566 473.905548,172.045563 468.303162,166.896561 
	C464.593658,163.487259 464.066437,159.312256 465.470764,155.215652 
	C466.969788,150.842789 470.648651,148.179077 475.521698,148.033524 
	C480.502777,147.884750 485.491760,148.000595 490.448883,148.000595 
	C491.107605,142.543335 487.983765,138.019562 482.511719,138.229919 
	C477.857300,138.408844 473.276978,140.514359 468.536255,141.802155 
	C467.780670,140.478333 466.912994,138.958115 466.042572,137.046341 
M486.354492,154.000061 
	C483.697754,154.000259 480.950867,153.584915 478.413605,154.135605 
	C476.476410,154.556046 473.415741,156.101532 473.329254,157.321838 
	C473.187286,159.325928 474.741455,162.971725 476.131134,163.258728 
	C479.432465,163.940536 483.397797,163.868027 486.451477,162.577789 
	C489.351196,161.352600 492.282043,158.608673 490.591522,154.000061 
	C489.573273,154.000061 488.430725,154.000061 486.354492,154.000061 
z"/>
<path fill="#FFFFFF" opacity="1.000000" stroke="none" 
	d="
M728.598389,80.010635 
	C723.703491,81.081131 719.229248,82.160904 714.325012,83.344460 
	C713.981384,82.901451 712.790955,81.902382 712.358398,80.642998 
	C712.000610,79.601166 712.074463,77.788719 712.751282,77.112053 
	C718.340149,71.524345 734.637024,71.867111 740.176636,77.821365 
	C741.933228,79.709534 743.653320,82.408623 743.825073,84.846848 
	C744.314697,91.797546 743.998901,98.805000 743.999939,105.790123 
	C744.000244,107.749802 744.000000,109.709488 744.000000,111.625694 
	C737.838135,112.216393 737.838135,112.216393 736.731018,109.189941 
	C730.087952,112.994247 723.198303,114.060005 716.103271,110.596809 
	C711.337158,108.270370 709.467651,103.468529 711.070496,97.100822 
	C712.261902,92.367836 716.165283,90.449913 720.535461,90.093460 
	C725.477966,89.690315 730.478760,90.000496 735.530762,90.000496 
	C737.388977,83.841362 733.272339,81.885681 728.598389,80.010635 
M720.100342,97.355957 
	C717.426453,100.654312 717.362427,103.351082 721.739441,105.246239 
	C726.082825,107.126816 730.368835,106.292587 733.554565,103.499893 
	C735.443481,101.844070 735.700195,98.326347 737.113953,94.500755 
	C731.094971,95.117790 726.747131,95.538795 722.408142,96.037560 
	C721.823364,96.104782 721.283508,96.563156 720.100342,97.355957 
z"/>
<path fill="#FFFFFF" opacity="1.000000" stroke="none" 
	d="
M567.924316,99.763412 
	C565.087830,88.518005 567.904419,79.494553 578.333740,74.846512 
	C587.177368,70.905190 599.770996,74.515434 604.119873,82.597282 
	C610.288757,94.061478 605.363098,110.237885 590.538818,112.094688 
	C579.752747,113.445686 571.350586,109.390312 567.924316,99.763412 
M591.080322,104.979797 
	C592.001648,104.325119 592.916443,103.661133 593.845337,103.017349 
	C598.130615,100.047279 599.825378,94.146111 597.998230,88.534561 
	C596.340820,83.444313 591.661926,79.683548 586.843079,80.056366 
	C581.828308,80.444344 577.712158,82.814270 575.901306,87.656769 
	C574.281433,91.988647 573.831970,96.617859 577.123413,100.557838 
	C580.548462,104.657730 584.761353,106.888405 591.080322,104.979797 
z"/>
<path fill="#FFFFFF" opacity="1.000000" stroke="none" 
	d="
M684.249023,73.016846 
	C695.994019,73.792946 701.666565,77.426346 701.970764,90.363930 
	C702.134827,97.341927 702.000000,104.326950 702.000000,111.654190 
	C699.495056,111.654190 697.093018,111.654190 694.000000,111.654190 
	C694.000000,105.198112 694.005981,98.445679 693.998413,91.693268 
	C693.990295,84.431267 690.476379,80.094711 684.546448,80.008133 
	C678.749634,79.923492 673.249939,85.492226 673.021301,91.815849 
	C672.901062,95.140343 673.000000,98.472755 673.000000,101.801598 
	C673.000000,105.089287 673.000000,108.376976 673.000000,111.824600 
	C670.294678,111.824600 668.007263,111.824600 665.359131,111.824600 
	C665.359131,99.420822 665.359131,86.902534 665.359131,73.959534 
	C668.235596,74.845100 672.187439,71.668900 673.526550,76.543808 
	C676.951538,75.374748 680.384094,74.203087 684.249023,73.016846 
z"/>
<path fill="#FFFFFF" opacity="1.000000" stroke="none" 
	d="
M540.143799,133.646179 
	C545.178040,136.812592 546.637512,141.619568 546.895691,146.584503 
	C547.291321,154.191818 546.999634,161.834869 546.999634,169.730011 
	C544.355652,169.730011 541.953613,169.730011 539.000000,169.730011 
	C539.000000,163.199280 539.002625,156.601822 538.999329,150.004364 
	C538.995667,142.769180 535.633057,138.549133 529.676208,138.294617 
	C523.143005,138.015503 518.154175,142.974731 518.024780,150.103989 
	C517.907532,156.563034 518.000000,163.025879 518.000000,169.741638 
	C515.333252,169.741638 512.930359,169.741638 510.260071,169.741638 
	C510.260071,157.367508 510.260071,144.969879 510.260071,132.124496 
	C513.280396,132.705872 517.225464,129.541000 518.717346,135.183762 
	C525.551697,130.162933 532.607971,130.313431 540.143799,133.646179 
z"/>
<path fill="#FFFFFF" opacity="1.000000" stroke="none" 
	d="
M772.022705,73.972702 
	C782.005249,70.880470 792.469604,78.006241 792.073853,87.126183 
	C791.721985,95.234550 792.000000,103.370239 792.000000,111.745316 
	C789.659546,111.745316 787.590759,111.745316 785.000000,111.745316 
	C785.000000,106.339050 785.178955,100.895027 784.932068,95.470383 
	C784.786804,92.278542 784.322876,89.003998 783.360168,85.970413 
	C782.069824,81.904419 777.851929,79.763924 773.923035,80.578560 
	C767.225830,81.967171 764.095337,84.834373 764.024597,89.978027 
	C763.926453,97.112984 763.999939,104.250313 763.999939,111.692780 
	C761.425171,111.692780 759.022461,111.692780 756.302917,111.692780 
	C756.302917,99.333061 756.302917,86.804749 756.302917,74.137306 
	C758.405579,74.137306 760.360962,74.137306 762.691101,74.137306 
	C762.857300,75.239456 763.033691,76.409439 763.159119,77.241608 
	C765.992249,76.152367 768.796082,75.074356 772.022705,73.972702 
z"/>
<path fill="#FFFFFF" opacity="1.000000" stroke="none" 
	d="
M106.000107,131.161530 
	C105.666756,127.438393 105.208542,124.198685 105.035896,120.943832 
	C104.870064,117.817345 105.000061,114.675163 105.000061,111.271225 
	C110.306252,111.271225 115.373466,111.271225 121.280930,111.271225 
	C120.463875,127.978867 119.646759,144.687759 118.814865,161.698883 
	C115.421608,161.698883 112.018410,161.698883 107.801857,161.698883 
	C107.207809,151.787659 106.603958,141.712997 106.000107,131.161530 
z"/>
<path fill="#FFFFFF" opacity="1.000000" stroke="none" 
	d="
M519.787354,112.982285 
	C512.033752,112.048508 505.139252,110.573257 500.864410,103.412743 
	C495.110138,93.774193 498.137390,78.556396 510.962585,74.465210 
	C517.113159,72.503212 523.049622,72.189743 528.541077,75.996544 
	C530.596741,77.421593 532.186218,79.519081 533.988281,81.309982 
	C532.361511,82.878998 530.734741,84.448021 529.150757,85.975777 
	C519.986633,78.864342 513.954041,78.322411 509.157227,84.477982 
	C504.697937,90.200363 504.602753,96.542252 509.710846,102.035965 
	C513.730469,106.359047 520.725220,108.386589 528.585876,100.215660 
	C529.581909,100.774551 530.513733,101.450722 531.551941,101.851196 
	C534.645447,103.044495 535.130310,105.189674 532.507690,106.842506 
	C528.654724,109.270630 524.337402,110.961746 519.787354,112.982285 
z"/>
<path fill="#FFFFFF" opacity="1.000000" stroke="none" 
	d="
M823.533325,73.214371 
	C829.063477,74.744621 834.356384,75.846207 836.715942,81.912590 
	C834.987549,83.182739 832.943909,84.684601 830.888611,86.195023 
	C827.796814,81.528633 822.960876,79.275139 818.993469,80.478668 
	C812.596313,82.419243 808.105042,87.483139 808.202820,92.644859 
	C808.318359,98.740746 812.242554,103.438751 818.861877,105.405785 
	C822.659302,106.534248 827.911926,104.137207 830.651245,99.931290 
	C832.703918,101.120399 834.771179,102.318001 836.851257,103.522987 
	C833.766785,110.963562 823.881836,113.877083 818.272888,112.571632 
	C806.082153,109.734306 801.341919,104.053268 800.902344,94.330650 
	C800.477844,84.940331 803.813354,78.177063 812.736877,74.900642 
	C815.996094,73.703987 819.663818,73.620132 823.533325,73.214371 
z"/>
<path fill="#E57717" opacity="1.000000" stroke="none" 
	d="
M386.044434,15.000011 
	C388.818420,15.000011 391.119232,15.000011 393.656433,15.000011 
	C393.656433,79.850502 393.656433,144.341766 393.656433,209.623474 
	C392.391937,208.689346 391.277954,208.291824 391.152924,207.689163 
	C390.854095,206.248306 391.002747,204.710861 391.002655,203.212402 
	C390.999542,143.576889 391.000000,83.941391 391.000000,24.305883 
	C391.000000,22.352839 391.000000,20.399796 391.000000,18.676111 
	C386.634521,16.644705 381.521088,20.006344 376.866547,15.000011 
	C380.698090,15.000011 383.134644,15.000011 386.044434,15.000011 
z"/>
<path fill="#FFFFFF" opacity="1.000000" stroke="none" 
	d="
M624.000000,95.999985 
	C624.000000,101.475487 624.000000,106.452492 624.000000,111.713814 
	C621.383118,111.713814 618.978394,111.713814 616.165955,111.713814 
	C616.165955,101.403084 616.165955,90.984482 616.165955,80.224167 
	C614.057251,80.090218 612.312622,79.979393 610.285767,79.850639 
	C610.285767,78.069572 610.285767,76.323814 610.285767,74.240395 
	C611.907410,74.116577 613.664490,73.982414 615.729492,73.824738 
	C615.937195,71.282951 615.741638,68.593201 616.431335,66.153740 
	C618.858643,57.568352 630.194275,56.348709 635.640747,60.057961 
	C636.168274,60.417217 636.311707,62.529633 635.864502,62.900204 
	C634.689941,63.873520 633.138000,64.763039 631.652466,64.927269 
	C623.907471,65.783546 623.792786,65.820885 624.188477,73.859993 
	C627.586121,73.859993 631.018616,73.859993 634.721802,73.859993 
	C634.721802,75.967079 634.721802,77.706642 634.721802,79.831482 
	C631.411011,79.831482 627.986755,79.831482 624.000000,79.831482 
	C624.000000,85.300438 624.000000,90.400963 624.000000,95.999985 
z"/>
<path fill="#FFFFFF" opacity="1.000000" stroke="none" 
	d="
M542.358276,111.572937 
	C542.049927,98.949135 542.049927,86.687103 542.049927,73.929794 
	C545.091675,74.632843 548.511475,72.372124 550.707581,76.226051 
	C554.183411,75.111382 558.238892,73.810844 562.738159,72.367981 
	C562.738159,75.502548 562.738159,77.926743 562.738159,79.867363 
	C559.644165,81.216614 556.042786,81.879257 553.860901,84.001411 
	C551.798401,86.007446 550.423340,89.476746 550.166260,92.426254 
	C549.621033,98.682373 550.000000,105.019051 550.000000,111.934715 
	C547.482300,111.934715 545.074524,111.934715 542.358276,111.572937 
z"/>
<path fill="#EA2313" opacity="1.000000" stroke="none" 
	d="
M110.833199,30.001982 
	C112.151970,31.805841 113.470749,33.609703 115.051918,35.772484 
	C115.629097,35.495361 116.671844,34.994698 118.065605,34.325500 
	C117.935020,36.271633 117.827827,37.869164 117.693405,39.872520 
	C118.935493,39.799812 120.473190,39.709801 122.678604,39.580704 
	C120.977264,47.701286 119.307137,55.672882 117.562798,63.998684 
	C116.506317,63.998684 115.537376,63.992916 114.568527,63.999603 
	C107.418564,64.048950 107.521149,64.041527 106.940392,56.784283 
	C106.748337,54.384315 105.553658,52.059387 105.400238,49.662838 
	C105.210907,46.705482 101.283447,42.768421 107.290703,40.947746 
	C107.845978,40.779453 107.717766,38.541874 108.013535,37.290329 
	C108.529106,35.108715 109.127731,32.946728 110.025635,30.397118 
	C110.359726,30.017721 110.833199,30.001982 110.833199,30.001982 
z"/>
<path fill="#E67817" opacity="1.000000" stroke="none" 
	d="
M378.000000,134.000000 
	C378.000000,95.409042 378.000000,57.318081 378.000000,19.227119 
	C378.425934,19.225103 378.851898,19.223089 379.277832,19.221073 
	C379.277832,82.318237 379.277832,145.415405 379.277832,208.512573 
	C377.341797,200.624222 378.189514,192.500488 378.035492,184.462723 
	C377.875977,176.138550 378.000000,167.808929 378.000000,159.481689 
	C378.000000,151.154465 378.000000,142.827225 378.000000,134.000000 
z"/>
<path fill="#FFFFFF" opacity="1.000000" stroke="none" 
	d="
M482.000000,100.980186 
	C482.000000,91.840164 482.000000,83.197845 482.000000,74.278831 
	C484.631226,74.278831 487.037872,74.278831 489.726196,74.278831 
	C489.726196,86.616035 489.726196,99.028961 489.726196,111.721924 
	C487.367340,111.721924 484.960754,111.721924 482.000000,111.721924 
	C482.000000,108.368668 482.000000,104.923279 482.000000,100.980186 
z"/>
<path fill="#FFFFFF" opacity="1.000000" stroke="none" 
	d="
M653.000000,92.000641 
	C653.000000,98.783516 653.000000,105.066826 653.000000,111.674583 
	C650.783508,111.674583 648.720032,111.674583 646.325439,111.674583 
	C646.325439,99.442619 646.325439,86.953842 646.325439,74.231247 
	C648.377441,74.231247 650.440186,74.231247 653.000000,74.231247 
	C653.000000,80.001717 653.000000,85.751389 653.000000,92.000641 
z"/>
<path fill="#FFFFFF" opacity="1.000000" stroke="none" 
	d="
M97.256599,80.001617 
	C108.319374,80.000198 118.904266,80.000198 129.742981,80.000198 
	C129.742981,81.668907 129.742981,83.068298 129.742981,84.523582 
	C129.543365,84.639374 129.264908,84.941879 128.985794,84.942474 
	C117.889000,84.966324 106.792145,84.962784 94.377296,84.962784 
	C95.345009,82.964127 96.061867,81.483574 97.256599,80.001617 
z"/>
<path fill="#FFFFFF" opacity="1.000000" stroke="none" 
	d="
M116.968948,72.000000 
	C120.427742,72.000000 123.392769,72.000000 126.676811,72.000000 
	C126.676811,73.665771 126.676811,75.161430 126.676811,76.833481 
	C117.521912,76.833481 108.483368,76.833481 99.223007,76.833481 
	C99.223007,75.278641 99.223007,73.881348 99.223007,72.000000 
	C104.982475,72.000000 110.728821,72.000000 116.968948,72.000000 
z"/>
<path fill="#FFFFFF" opacity="1.000000" stroke="none" 
	d="
M114.935013,102.000000 
	C117.054245,102.000000 118.692108,102.000000 120.664688,102.000000 
	C120.664688,104.505508 120.664688,106.893127 120.664688,109.643059 
	C115.794243,109.643059 110.637856,109.643059 105.237106,109.643059 
	C105.237106,107.309479 105.237106,104.920860 105.237106,102.000000 
	C108.289810,102.000000 111.371727,102.000000 114.935013,102.000000 
z"/>
<path fill="#FFFFFF" opacity="1.000000" stroke="none" 
	d="
M123.548706,92.676041 
	C115.918938,92.956238 108.672813,92.956238 101.216370,92.956238 
	C101.216370,91.271202 101.216370,89.878288 101.216370,88.236282 
	C108.627930,88.236282 116.006828,88.236282 123.932350,88.236282 
	C123.932350,89.592796 123.932350,90.994316 123.548706,92.676041 
z"/>
<path fill="#FFFFFF" opacity="1.000000" stroke="none" 
	d="
M116.922852,70.000000 
	C111.491211,70.000000 106.549324,70.000000 101.241966,70.000000 
	C101.132149,68.423859 101.034462,67.021873 100.914764,65.304062 
	C108.576012,65.304062 116.083153,65.304062 123.796204,65.304062 
	C123.796204,66.751190 123.796204,68.147026 123.796204,70.000000 
	C121.623352,70.000000 119.517975,70.000000 116.922852,70.000000 
z"/>
<path fill="#FFFFFF" opacity="1.000000" stroke="none" 
	d="
M107.166557,95.000000 
	C112.249397,95.000000 116.851036,95.000000 121.724716,95.000000 
	C121.724716,96.637085 121.724716,98.033279 121.724716,99.716949 
	C115.834610,99.716949 109.786415,99.716949 103.211784,99.716949 
	C103.151390,98.422592 103.081535,96.925713 102.991669,95.000000 
	C104.452728,95.000000 105.569046,95.000000 107.166557,95.000000 
z"/>
<path fill="#FFFFFF" opacity="1.000000" stroke="none" 
	d="
M649.921570,66.999985 
	C645.838135,67.602310 643.989685,65.367874 644.241882,62.356174 
	C644.372131,60.801079 646.653687,58.729019 648.382202,58.157284 
	C651.499695,57.126137 654.552185,58.293747 654.842163,62.002991 
	C655.045105,64.599503 653.980164,67.266907 649.921570,66.999985 
z"/>
<path fill="#FFFFFF" opacity="1.000000" stroke="none" 
	d="
M483.289429,66.983658 
	C479.843567,64.905319 480.112640,61.811443 482.030487,59.843369 
	C483.370056,58.468765 486.576019,57.976265 488.559662,58.516647 
	C489.753326,58.841808 491.058563,62.028893 490.813934,63.711906 
	C490.222504,67.781090 486.613586,66.960686 483.289429,66.983658 
z"/>
<path fill="#E9720E" opacity="1.000000" stroke="none" 
	d="
M140.626862,175.083160 
	C144.119659,180.038086 148.682983,183.134872 154.586304,184.407333 
	C155.428955,184.588959 156.104416,185.546249 156.927841,186.488800 
	C151.997375,184.717163 146.874237,182.833740 142.083527,180.317429 
	C140.926300,179.709625 140.868240,177.009140 140.626862,175.083160 
z"/>
<path fill="#FFFFFF" opacity="1.000000" stroke="none" 
	d="
M448.416504,169.061493 
	C451.162628,166.436188 454.283020,163.757767 457.759094,161.060730 
	C456.309906,165.222763 453.415253,168.127899 448.416504,169.061493 
z"/>
<path fill="#EA2313" opacity="1.000000" stroke="none" 
	d="
M110.792740,29.668791 
	C110.833199,30.001982 110.359726,30.017721 110.123184,30.030190 
	C109.301933,29.713579 108.704208,29.403400 108.154213,29.024008 
	C108.103401,28.988958 108.356468,28.513411 108.468437,28.242401 
	C109.229713,28.606802 109.990997,28.971201 110.792740,29.668791 
z"/>
<path fill="#000000" opacity="1.000000" stroke="none" 
	d="
M183.167038,142.001205 
	C170.317993,149.119156 156.544418,142.647675 155.109375,126.320885 
	C154.418533,118.460976 156.136810,111.026688 163.368103,106.132416 
	C169.031494,102.299324 174.823792,102.123787 180.832336,105.349716 
	C186.733521,108.518005 189.314651,113.758255 189.941162,120.070648 
	C190.267731,123.361099 189.988052,126.711716 189.622620,130.675354 
	C187.231033,134.877441 185.199036,138.439316 183.167038,142.001205 
z"/>
<path fill="#E9720E" opacity="1.000000" stroke="none" 
	d="
M183.549774,141.999939 
	C185.199036,138.439316 187.231033,134.877441 189.575470,131.135620 
	C190.866486,136.533905 188.443848,141.026123 183.549774,141.999939 
z"/>
<path fill="#000000" opacity="1.000000" stroke="none" 
	d="
M450.812805,154.478928 
	C450.290863,160.656616 447.863800,162.959854 442.260254,162.991806 
	C435.989929,163.027542 429.719208,163.000000 423.227112,163.000000 
	C423.227112,157.940506 423.227112,153.215729 423.227112,148.001495 
	C429.543915,148.001495 435.803009,147.824966 442.046082,148.065277 
	C446.024475,148.218414 448.975708,150.400803 450.812805,154.478928 
z"/>
<path fill="#000000" opacity="1.000000" stroke="none" 
	d="
M423.000000,133.985199 
	C423.000000,131.190353 423.000000,128.880646 423.000000,125.619797 
	C429.577454,126.118523 435.952515,126.196190 442.168152,127.231285 
	C445.677429,127.815697 448.746368,130.115204 447.998199,134.694153 
	C447.301239,138.959579 444.300659,140.752563 440.459442,140.932083 
	C434.834412,141.194977 429.187958,140.999725 423.000000,140.999725 
	C423.000000,138.669769 423.000000,136.570053 423.000000,133.985199 
z"/>
<path fill="#000000" opacity="1.000000" stroke="none" 
	d="
M868.502197,89.999565 
	C861.897339,89.998512 855.740417,89.998116 849.583557,89.993004 
	C849.251709,89.992722 848.919800,89.952820 848.588135,89.929062 
	C849.765991,84.257652 853.978149,80.354065 859.299011,80.000572 
	C864.186523,79.675865 868.463989,82.650764 870.233582,87.839531 
	C870.408936,88.353745 869.406189,89.269737 868.502197,89.999565 
z"/>
<path fill="#000000" opacity="1.000000" stroke="none" 
	d="
M486.821350,154.000061 
	C488.430725,154.000061 489.573273,154.000061 490.591522,154.000061 
	C492.282043,158.608673 489.351196,161.352600 486.451477,162.577789 
	C483.397797,163.868027 479.432465,163.940536 476.131134,163.258728 
	C474.741455,162.971725 473.187286,159.325928 473.329254,157.321838 
	C473.415741,156.101532 476.476410,154.556046 478.413605,154.135605 
	C480.950867,153.584915 483.697754,154.000259 486.821350,154.000061 
z"/>
<path fill="#000000" opacity="1.000000" stroke="none" 
	d="
M720.411621,97.098175 
	C721.283508,96.563156 721.823364,96.104782 722.408142,96.037560 
	C726.747131,95.538795 731.094971,95.117790 737.113953,94.500755 
	C735.700195,98.326347 735.443481,101.844070 733.554565,103.499893 
	C730.368835,106.292587 726.082825,107.126816 721.739441,105.246239 
	C717.362427,103.351082 717.426453,100.654312 720.411621,97.098175 
z"/>
<path fill="#000000" opacity="1.000000" stroke="none" 
	d="
M590.681946,104.989311 
	C584.761353,106.888405 580.548462,104.657730 577.123413,100.557838 
	C573.831970,96.617859 574.281433,91.988647 575.901306,87.656769 
	C577.712158,82.814270 581.828308,80.444344 586.843079,80.056366 
	C591.661926,79.683548 596.340820,83.444313 597.998230,88.534561 
	C599.825378,94.146111 598.130615,100.047279 593.845337,103.017349 
	C592.916443,103.661133 592.001648,104.325119 590.681946,104.989311 
z"/>
</svg>