<svg version="1.1" id="Layer_1" xmlns="http://www.w3.org/2000/svg" xmlns:xlink="http://www.w3.org/1999/xlink" x="0px" y="0px"
	 width="100%" viewBox="0 0 891 226" enable-background="new 0 0 891 226" xml:space="preserve">
<path fill="#000000" opacity="1.000000" stroke="none" 
	d="
M648.000000,227.000000 
	C432.048218,227.000000 216.596436,227.000000 1.072329,227.000000 
	C1.072329,151.731796 1.072329,76.463516 1.072329,1.097614 
	C297.999969,1.097614 595.000000,1.097614 891.972656,1.097614 
	C891.972656,76.403534 891.972656,151.701767 891.972656,227.000000 
	C810.796814,227.000000 729.648438,227.000000 648.000000,227.000000 
M208.999603,155.427643 
	C208.999557,136.594589 209.016602,117.761528 208.988922,98.928520 
	C208.980774,93.385231 206.719055,91.104095 201.340698,91.000282 
	C193.161652,90.842415 192.275391,91.484703 189.539093,99.615982 
	C189.113449,99.333321 188.662155,99.115227 188.311554,98.788940 
	C177.945358,89.141571 161.541565,87.854332 149.792023,95.591286 
	C141.651428,100.951759 137.880203,108.917763 136.521057,118.058350 
	C134.673035,130.486816 136.176620,142.358337 144.838623,152.286011 
	C149.571777,157.710739 155.756760,160.434219 162.912201,161.001053 
	C173.687057,161.854553 183.566833,160.238632 190.912369,150.808136 
	C190.874451,154.409348 190.404053,157.762924 190.015228,161.125961 
	C189.127121,168.807556 185.142105,173.217621 177.675720,175.029236 
	C168.435959,177.271072 159.899857,174.859650 151.575943,171.204834 
	C146.410568,168.936874 143.229507,169.751129 140.913712,174.336700 
	C138.553024,179.011169 140.890335,183.464111 146.629211,185.875412 
	C158.100876,190.695435 170.225281,190.912308 182.138229,189.662628 
	C187.920105,189.056107 193.998932,185.928223 198.787216,182.381149 
	C207.245422,176.115463 209.090744,166.452148 208.999603,155.427643 
M228.000397,94.500000 
	C228.000412,114.816216 227.974289,135.132523 228.047729,155.448486 
	C228.053925,157.161697 228.363617,159.070480 229.165466,160.543808 
	C230.909683,163.748642 237.631882,165.616364 241.975281,163.823898 
	C245.375977,162.420502 247.058334,159.442795 247.029190,155.528275 
	C246.944870,144.205109 246.926849,132.880280 247.024109,121.557304 
	C247.097931,112.963234 253.612091,105.754929 262.041138,105.045860 
	C270.038849,104.373093 275.643768,108.910805 275.927734,119.568459 
	C276.242523,131.383453 275.995819,143.213303 276.002197,155.036682 
	C276.005463,161.028488 277.978241,163.689697 282.613708,163.996857 
	C291.018585,164.553772 294.791534,162.691910 294.830170,156.403214 
	C294.926849,140.659958 295.079041,124.842476 293.691620,109.189270 
	C292.658386,97.532059 284.167511,92.109116 276.277985,91.204338 
	C265.811096,90.003990 255.279922,90.426323 246.998825,99.761024 
	C246.998825,88.589348 247.089111,78.267410 246.963470,67.948097 
	C246.893097,62.168213 243.602585,59.908821 236.000946,60.000172 
	C230.020081,60.072052 228.033661,62.026825 228.009247,68.021484 
	C227.974640,76.514191 228.000427,85.007149 228.000397,94.500000 
M90.990883,152.850601 
	C90.248634,148.135056 87.140938,146.930054 82.822014,146.962143 
	C69.042336,147.064606 55.261410,147.000122 40.999535,147.000122 
	C40.999535,144.741913 40.999538,142.955994 40.999538,141.170074 
	C40.999496,117.514595 41.011246,93.859108 40.991856,70.203644 
	C40.986412,63.559662 38.226826,60.994091 31.250534,61.000031 
	C23.789700,61.006382 22.005154,62.682285 22.003235,69.776337 
	C21.995573,98.096275 21.991428,126.416229 22.006971,154.736160 
	C22.010414,161.010284 23.990074,162.985825 30.264301,162.993057 
	C47.422832,163.012817 64.581398,163.002914 81.739952,162.998642 
	C89.293083,162.996765 90.736343,161.540100 90.990883,152.850601 
M311.513641,105.999718 
	C312.937988,106.099121 314.362366,106.198524 316.000244,106.312828 
	C316.000244,116.869095 315.851044,127.017441 316.078644,137.157333 
	C316.161804,140.863541 316.525238,144.781570 317.816711,148.204590 
	C323.273376,162.667374 342.188782,169.569656 356.058533,162.459061 
	C358.799957,161.053619 360.978607,155.046371 359.785156,151.610916 
	C358.532501,148.005142 356.241669,147.329544 352.240723,147.797318 
	C341.765350,149.022079 335.046936,148.067337 335.002655,132.346848 
	C334.984344,125.850685 334.999634,119.354416 334.999634,112.858192 
	C334.999634,110.616333 334.999634,108.374474 334.999634,105.996925 
	C340.980469,105.996925 346.144165,106.098648 351.301819,105.965721 
	C355.667572,105.853210 358.557434,102.827690 357.892792,98.645264 
	C357.327942,95.090546 356.401947,91.538002 351.205719,91.916153 
	C345.957520,92.298088 340.659882,92.000320 334.999481,92.000320 
	C334.999481,87.148491 335.011230,82.851456 334.996765,78.554504 
	C334.974365,71.895615 333.125793,70.036469 326.528717,70.000046 
	C318.770721,69.957214 316.067749,72.230705 316.007477,78.922173 
	C315.969025,83.187752 316.000275,87.453949 316.000275,92.001549 
	C312.541168,92.001549 309.590424,91.475601 306.969086,92.178345 
	C305.083618,92.683800 302.565277,94.583984 302.177734,96.283493 
	C300.315186,104.452187 303.548126,106.731125 311.513641,105.999718 
M433.928192,83.653313 
	C431.017395,78.933281 427.543976,74.457176 425.360718,69.421707 
	C423.346924,64.777069 420.485992,64.363945 416.278259,65.414986 
	C416.278259,81.843292 416.278259,98.234962 416.278259,114.662605 
	C418.951294,114.662605 421.331390,114.662605 424.116882,114.662605 
	C424.116882,104.124748 424.116882,93.917343 424.116882,83.222511 
	C424.990631,83.849136 425.486145,84.029381 425.695343,84.380318 
	C430.115723,91.796135 434.496063,99.235809 438.901825,106.660362 
	C440.868225,109.974113 444.056061,110.026024 446.041901,106.791199 
	C447.324036,104.702667 448.584259,102.600655 449.847839,100.500816 
	C453.623657,94.226036 457.396240,87.949348 461.170074,81.673409 
	C461.546265,81.818878 461.922455,81.964355 462.298645,82.109825 
	C462.298645,93.024857 462.298645,103.939880 462.298645,114.752289 
	C464.676117,114.752289 466.616760,114.752289 468.732422,114.752289 
	C468.732422,98.110481 468.732422,81.714622 468.732422,65.406830 
	C464.139618,63.970539 461.534393,65.548439 459.610352,69.657082 
	C457.407349,74.361427 454.596832,78.790115 451.924713,83.263588 
	C448.967316,88.214645 445.867950,93.080864 442.569550,98.405045 
	C439.463806,93.280121 436.768097,88.831833 433.928192,83.653313 
M458.994110,156.042175 
	C456.939392,152.885040 454.884674,149.727890 452.681580,146.342758 
	C462.556732,134.376892 454.482727,124.247238 444.228882,123.212830 
	C435.051575,122.287018 425.707123,123.018028 416.302582,123.018028 
	C416.302582,139.896271 416.302582,156.267914 416.302582,172.999924 
	C425.226837,172.999924 433.852295,173.003555 442.477753,172.999023 
	C454.365204,172.992767 459.002991,168.472229 458.994110,156.042175 
M377.999695,41.500011 
	C377.999695,98.233452 377.999695,154.966888 377.999695,211.608002 
	C383.725464,211.608002 388.781158,211.608002 393.756165,211.608002 
	C393.756165,146.636978 393.756165,82.057938 393.756165,17.303310 
	C388.459198,17.303310 383.409119,17.303310 378.445129,17.303310 
	C378.252991,17.906082 378.073120,18.209274 378.071594,18.513327 
	C378.036041,25.842173 378.019623,33.171112 377.999695,41.500011 
M841.000244,97.352173 
	C840.614136,105.999634 846.683105,112.449020 853.557251,114.699608 
	C862.986694,117.786751 873.779907,114.645470 877.011719,108.551003 
	C875.594482,107.067680 874.129456,105.534279 872.712280,104.051018 
	C862.257080,111.551666 851.823120,109.276138 849.310486,98.858490 
	C859.166626,98.858490 868.924133,98.858490 878.619263,98.858490 
	C880.407776,82.966820 871.068604,76.801880 860.115723,76.254868 
	C850.441284,75.771706 839.835266,83.906059 841.000244,97.352173 
M566.004883,165.098740 
	C567.172546,163.393265 568.302795,161.660599 569.515808,159.987976 
	C572.004089,156.556839 574.239197,155.999100 576.787109,160.169693 
	C578.480469,162.941528 581.242859,165.068939 582.882751,167.862839 
	C585.757446,172.760345 589.631531,174.044281 596.091003,172.148346 
	C590.498169,164.765793 585.255859,157.845901 579.129883,149.759628 
	C584.240173,145.098465 589.429321,140.365356 594.945129,135.334305 
	C585.938477,134.595383 586.024536,134.685638 580.360840,140.085159 
	C575.892334,144.345169 571.178223,148.347626 565.835327,153.124161 
	C565.835327,141.552597 565.835327,130.850601 565.835327,120.238182 
	C563.342529,120.238182 561.400879,120.238182 559.266357,120.238182 
	C559.266357,137.854111 559.266357,155.233826 559.266357,172.685272 
	C561.591125,172.685272 563.644897,172.685272 566.000977,172.685272 
	C566.000977,170.239029 566.000977,168.097946 566.004883,165.098740 
M497.474487,172.969070 
	C497.968597,172.445282 498.887268,171.926331 498.893311,171.396988 
	C498.988068,163.083221 499.345520,154.743820 498.816315,146.463120 
	C498.532440,142.021957 496.263916,137.782990 491.504669,136.265320 
	C482.658752,133.444458 474.067474,133.679031 466.209290,139.521500 
	C467.242615,141.415100 468.242493,143.247406 469.214600,145.028870 
	C483.791779,139.202881 491.425659,141.279251 490.652771,151.002197 
	C486.059906,151.002197 481.423706,150.870285 476.797974,151.033752 
	C470.205505,151.266708 465.409698,155.195938 465.161377,161.274734 
	C464.961029,166.178757 466.948181,172.234695 474.552551,172.856155 
	C480.247711,173.321594 486.061768,172.332260 491.730835,171.996109 
	C493.235046,172.305374 494.911377,172.650024 497.474487,172.969070 
M730.434814,83.985336 
	C735.617859,84.699974 736.370361,88.485504 736.954834,92.999786 
	C734.009216,92.999786 731.527954,92.999290 729.046631,92.999931 
	C726.553223,93.000572 724.053894,92.892792 721.567566,93.026154 
	C716.206726,93.313721 711.455811,97.497856 711.005432,102.186485 
	C710.378479,108.713005 713.722900,113.269920 719.635559,115.060310 
	C725.857483,116.944351 731.368896,115.526474 736.496033,113.989975 
	C738.780090,114.428780 741.064148,114.867577 743.984741,115.428650 
	C743.984741,105.355148 744.186157,96.077293 743.836792,86.820229 
	C743.754028,84.627747 742.321533,81.953537 740.654968,80.446342 
	C733.713562,74.168777 718.571716,74.967339 711.996704,82.070137 
	C712.868713,83.698120 713.766052,85.373375 714.840576,87.379456 
	C716.677917,86.521660 718.210205,85.431999 719.891724,85.101494 
	C723.090637,84.472771 726.374756,84.277977 730.434814,83.985336 
M606.169373,90.602470 
	C602.953491,75.287086 583.838806,72.971527 574.324646,80.331871 
	C566.063293,86.723015 564.422241,98.644814 570.194824,107.367035 
	C575.707092,115.695862 586.303040,118.012497 595.989868,113.938591 
	C604.279907,110.452110 607.739868,102.634514 606.169373,90.602470 
M761.398376,114.995193 
	C762.265198,113.813934 763.816589,112.668350 763.880371,111.445221 
	C764.156982,106.136765 763.984924,100.805641 764.003479,95.482864 
	C764.030762,87.671692 767.484497,84.011253 774.803040,83.999695 
	C781.718567,83.988770 784.963257,87.577026 784.994812,95.336800 
	C785.020935,101.772423 785.000122,108.208237 785.000122,114.661293 
	C787.953430,114.661293 790.334900,114.661293 792.994202,114.661293 
	C792.994202,107.028488 793.349854,99.708603 792.895386,92.439362 
	C792.430298,84.999687 789.654114,77.215218 779.411072,76.867905 
	C774.414917,76.698494 769.374878,77.826744 764.087891,78.396362 
	C762.812012,74.772972 759.210083,77.781204 756.285461,77.048004 
	C756.285461,89.878609 756.285461,102.260788 756.285461,114.998886 
	C757.866577,114.998886 759.164673,114.998886 761.398376,114.995193 
M674.265381,90.271812 
	C677.692810,84.509277 682.599792,82.275703 688.395691,84.216187 
	C693.886230,86.054428 694.194519,90.625183 694.047668,95.522079 
	C693.854980,101.945602 694.000366,108.379265 694.000366,114.769623 
	C696.973633,114.769623 699.247498,114.769623 701.979614,114.769623 
	C701.979614,105.932190 702.325134,97.295982 701.842102,88.706375 
	C701.578186,84.013756 699.035583,80.160477 694.297546,78.047035 
	C686.836304,74.718910 680.071106,76.264961 673.300537,80.630013 
	C673.055176,79.329140 672.842285,78.200256 672.664429,77.257309 
	C670.268188,77.257309 668.335815,77.257309 666.303833,77.257309 
	C666.303833,89.911011 666.303833,102.307335 666.303833,114.632141 
	C668.663208,114.632141 670.711731,114.632141 672.488037,114.632141 
	C673.023438,106.522835 673.533386,98.797310 674.265381,90.271812 
M113.490814,163.999878 
	C115.254265,163.999878 117.017708,163.999878 119.129898,163.999878 
	C119.975304,146.771149 120.788956,130.189590 121.615723,113.340683 
	C116.296227,113.340683 110.780334,113.340683 104.759842,113.340683 
	C105.927620,130.380829 107.069855,147.048325 108.231560,163.999771 
	C109.940605,163.999771 111.248688,163.999771 113.490814,163.999878 
M546.999695,168.326752 
	C546.999573,161.670135 547.083374,155.012192 546.976990,148.357269 
	C546.857117,140.861542 541.963745,135.918579 534.737732,134.918381 
	C528.685303,134.080627 523.256531,135.082733 518.200073,138.732330 
	C518.167053,132.567627 513.993347,135.833755 511.255310,134.939957 
	C511.255310,147.767471 511.255310,160.159134 511.255310,172.709320 
	C513.535400,172.709320 515.582520,172.709320 517.542358,172.709320 
	C517.738586,172.121643 517.926147,171.818924 517.928284,171.514893 
	C517.965759,166.190506 517.764954,160.852875 518.086914,155.546722 
	C518.260132,152.691849 518.902710,149.701508 520.075378,147.107697 
	C522.093445,142.643723 527.310486,140.643845 532.839478,142.097290 
	C537.465942,143.313538 539.187439,146.694946 539.052612,151.443756 
	C538.851257,158.535156 539.000305,165.636490 539.000305,173.477402 
	C542.127502,171.651276 547.250183,176.225052 546.999695,168.326752 
M832.876160,79.397316 
	C831.997986,78.957169 831.136963,78.477844 830.238892,78.082916 
	C820.948792,73.997581 808.160767,77.421921 803.572876,85.688202 
	C797.359131,96.883980 802.012878,114.713943 820.277771,115.992500 
	C827.792358,116.518532 834.394714,112.765350 836.741821,106.819862 
	C833.814270,103.589745 831.436096,102.775902 827.650391,106.459549 
	C824.088013,109.925934 818.962891,109.508591 814.513977,106.792595 
	C810.404968,104.284042 807.806580,98.534340 809.119324,93.463203 
	C810.295044,88.921478 812.727966,85.352676 817.903320,83.887924 
	C823.893921,82.192429 827.775330,85.155800 831.587585,88.874931 
	C833.511841,87.610596 835.251160,86.467804 837.364319,85.079330 
	C835.951843,83.244270 834.679016,81.590691 832.876160,79.397316 
M503.492340,109.963455 
	C510.799469,115.832924 518.770813,117.641884 527.674072,113.986000 
	C532.015015,112.203506 534.137512,108.396210 532.220642,105.742332 
	C529.442810,101.896576 527.064758,105.138802 525.209900,106.529007 
	C519.418152,110.869835 513.223755,108.341415 509.710266,105.021538 
	C505.206268,100.765778 505.283936,92.660873 509.400146,88.110023 
	C514.040649,82.979446 519.572021,81.500908 525.287476,85.790520 
	C528.811707,88.435616 531.409790,87.934212 533.772400,84.478966 
	C529.014771,73.481850 509.569855,74.012199 502.954712,83.308960 
	C497.141479,91.478783 497.256683,100.227119 503.492340,109.963455 
M635.647400,68.822937 
	C635.614136,66.636765 636.194214,62.840679 635.437805,62.552471 
	C632.659973,61.494137 629.300476,60.866272 626.409790,61.408482 
	C618.223206,62.944042 615.826477,69.160469 615.841370,76.746460 
	C613.760193,76.940804 612.013550,77.103905 610.352234,77.259033 
	C610.352234,79.345123 610.352234,81.064491 610.352234,82.853821 
	C612.308472,82.973808 613.921753,83.072769 616.013550,83.201080 
	C616.013550,93.797905 616.013550,104.190559 616.013550,114.693954 
	C618.897461,114.693954 621.275940,114.693954 624.161438,114.693954 
	C624.161438,104.016563 624.161438,93.634773 624.161438,82.761734 
	C628.069031,82.761734 631.463501,82.761734 634.752197,82.761734 
	C634.752197,80.643303 634.752197,79.037476 634.752197,76.958282 
	C631.102295,76.958282 627.684570,76.958282 624.316101,76.958282 
	C623.717163,69.689880 626.684753,66.659042 632.042358,68.520630 
	C633.027283,68.862869 634.062012,69.061821 635.647400,68.822937 
M105.992020,51.709862 
	C106.814445,56.456898 107.636871,61.203930 108.467743,65.999725 
	C110.032356,65.999725 111.211617,65.867851 112.351921,66.022728 
	C117.105049,66.668320 119.018631,64.979393 119.197220,59.875870 
	C119.352997,55.424286 121.060432,51.015484 122.191048,46.615730 
	C122.590050,45.063015 123.310905,43.593002 123.884811,42.085232 
	C122.498177,41.674847 121.104118,41.286949 119.731461,40.834194 
	C119.472008,40.748619 119.268204,40.426521 119.088348,40.177696 
	C116.857353,37.091137 114.635551,33.997936 112.120491,30.502123 
	C109.519966,30.573193 107.923386,32.247433 107.991127,35.596176 
	C108.050598,38.536221 108.003540,41.478428 108.003540,44.158100 
	C106.446304,44.253250 105.258919,44.325802 103.635307,44.425003 
	C104.525864,46.923058 105.229088,48.895634 105.992020,51.709862 
M547.398438,114.995110 
	C548.264648,113.977440 549.802063,113.007332 549.878174,111.933678 
	C550.171814,107.789497 549.999207,103.612251 549.999756,99.447327 
	C550.001160,88.493553 552.229492,85.675774 562.656982,83.356926 
	C562.656982,80.936882 562.656982,78.544777 562.656982,75.409760 
	C558.094238,77.079247 554.075134,78.549820 550.206604,79.965302 
	C549.618164,74.110542 545.159668,78.124115 542.283752,76.935524 
	C542.283752,89.844032 542.283752,102.240334 542.283752,114.998863 
	C543.863953,114.998863 545.163452,114.998863 547.398438,114.995110 
M653.999756,91.505539 
	C653.999756,86.744644 653.999756,81.983757 653.999756,77.215027 
	C651.050659,77.215027 648.778259,77.215027 646.255859,77.215027 
	C646.255859,89.810707 646.255859,102.192375 646.255859,114.690468 
	C648.901184,114.690468 651.280823,114.690468 653.999756,114.690468 
	C653.999756,107.092667 653.999756,99.798378 653.999756,91.505539 
M489.999939,84.581375 
	C489.999939,82.145409 489.999939,79.709442 489.999939,77.381195 
	C486.972046,77.381195 484.588501,77.381195 482.239319,77.381195 
	C482.239319,90.021187 482.239319,102.279594 482.239319,114.709457 
	C484.864044,114.709457 487.245209,114.709457 489.999939,114.709457 
	C489.999939,104.802933 489.999939,95.181076 489.999939,84.581375 
M109.505730,82.000008 
	C104.728172,82.000008 99.950615,82.000008 94.857536,82.000008 
	C95.082329,84.063240 95.233551,85.451271 95.375153,86.750923 
	C107.067459,86.750923 118.337845,86.750923 129.696716,86.750923 
	C129.696716,85.115265 129.696716,83.732346 129.696716,82.000008 
	C123.108986,82.000008 116.806389,82.000008 109.505730,82.000008 
M125.136833,78.981392 
	C125.912903,77.605164 126.688980,76.228935 127.775101,74.302887 
	C117.399986,74.302887 108.321732,74.302887 98.932823,74.302887 
	C99.091965,76.019814 99.220497,77.406601 99.367920,78.997169 
	C107.893555,78.997169 116.044518,78.997169 125.136833,78.981392 
M117.340004,103.999672 
	C113.270706,103.999672 109.201416,103.999672 105.275375,103.999672 
	C105.275375,107.073318 105.275375,109.338310 105.275375,111.682922 
	C110.943993,111.682922 116.332199,111.682922 122.305626,111.682922 
	C120.617668,108.890709 125.250214,103.751717 117.340004,103.999672 
M111.516182,90.000313 
	C108.073700,90.000313 104.631210,90.000313 100.862389,90.000313 
	C101.083015,92.057396 101.231857,93.445168 101.371979,94.751663 
	C109.063835,94.751663 116.336754,94.751663 123.697624,94.751663 
	C123.697624,93.116608 123.697624,91.733681 123.697624,90.000313 
	C119.774597,90.000313 116.137283,90.000313 111.516182,90.000313 
M116.438805,71.999687 
	C118.271370,71.998878 120.108505,71.915146 121.935501,72.015602 
	C125.131653,72.191345 125.483337,70.728653 124.548798,68.230194 
	C116.639473,68.230194 109.026588,68.230194 101.413704,68.230194 
	C101.149612,68.668320 100.885513,69.106445 100.621422,69.544571 
	C101.734222,70.361984 102.798538,71.791565 103.968758,71.884247 
	C107.776665,72.185883 111.623291,71.998718 116.438805,71.999687 
M113.465988,97.000015 
	C110.030434,97.000015 106.594879,97.000015 103.221626,97.000015 
	C103.221626,98.963135 103.221626,100.245354 103.221626,101.732811 
	C109.504875,101.732811 115.579620,101.732811 121.958939,101.732811 
	C121.879135,100.066208 121.812859,98.682037 121.732315,97.000015 
	C119.051605,97.000015 116.742599,97.000015 113.465988,97.000015 
M649.569092,61.002361 
	C645.393799,60.985764 644.322998,63.826748 645.203186,66.949783 
	C645.662598,68.579865 648.614685,71.010269 649.624756,70.668327 
	C651.704163,69.964401 654.121460,67.931229 654.781799,65.915131 
	C655.741333,62.985332 653.776367,60.964191 649.569092,61.002361 
M490.624023,63.162430 
	C487.980438,60.253914 484.907776,59.720737 482.116669,62.541294 
	C479.936584,64.744423 480.339447,67.630241 482.959412,69.235603 
	C484.461334,70.155891 487.478394,70.734955 488.447723,69.893852 
	C489.905243,68.629112 490.165344,65.984413 490.624023,63.162430 
z"/>
<path fill="#E9720E" opacity="1.000000" stroke="none" 
	d="
M208.999603,155.914505 
	C209.090744,166.452148 207.245422,176.115463 198.787216,182.381149 
	C193.998932,185.928223 187.920105,189.056107 182.138229,189.662628 
	C170.225281,190.912308 158.100876,190.695435 146.629211,185.875412 
	C140.890335,183.464111 138.553024,179.011169 140.913712,174.336700 
	C143.229507,169.751129 146.410568,168.936874 151.575943,171.204834 
	C159.899857,174.859650 168.435959,177.271072 177.675720,175.029236 
	C185.142105,173.217621 189.127121,168.807556 190.015228,161.125961 
	C190.404053,157.762924 190.874451,154.409348 190.912369,150.808136 
	C183.566833,160.238632 173.687057,161.854553 162.912201,161.001053 
	C155.756760,160.434219 149.571777,157.710739 144.838623,152.286011 
	C136.176620,142.358337 134.673035,130.486816 136.521057,118.058350 
	C137.880203,108.917763 141.651428,100.951759 149.792023,95.591286 
	C161.541565,87.854332 177.945358,89.141571 188.311554,98.788940 
	C188.662155,99.115227 189.113449,99.333321 189.539093,99.615982 
	C192.275391,91.484703 193.161652,90.842415 201.340698,91.000282 
	C206.719055,91.104095 208.980774,93.385231 208.988922,98.928520 
	C209.016602,117.761528 208.999557,136.594589 208.999603,155.914505 
M185.010910,141.485336 
	C190.804993,135.507690 190.830780,127.885056 189.817307,120.622620 
	C187.972656,107.403801 173.734100,100.663010 163.006775,108.409996 
	C156.088394,113.406265 154.541702,120.588875 155.116684,128.269745 
	C155.671112,135.675797 158.589478,142.216919 165.978973,145.422806 
	C172.790543,148.377960 178.995499,146.842529 185.010910,141.485336 
z"/>
<path fill="#E9720E" opacity="1.000000" stroke="none" 
	d="
M228.000397,94.000000 
	C228.000427,85.007149 227.974640,76.514191 228.009247,68.021484 
	C228.033661,62.026825 230.020081,60.072052 236.000946,60.000172 
	C243.602585,59.908821 246.893097,62.168213 246.963470,67.948097 
	C247.089111,78.267410 246.998825,88.589348 246.998825,99.761024 
	C255.279922,90.426323 265.811096,90.003990 276.277985,91.204338 
	C284.167511,92.109116 292.658386,97.532059 293.691620,109.189270 
	C295.079041,124.842476 294.926849,140.659958 294.830170,156.403214 
	C294.791534,162.691910 291.018585,164.553772 282.613708,163.996857 
	C277.978241,163.689697 276.005463,161.028488 276.002197,155.036682 
	C275.995819,143.213303 276.242523,131.383453 275.927734,119.568459 
	C275.643768,108.910805 270.038849,104.373093 262.041138,105.045860 
	C253.612091,105.754929 247.097931,112.963234 247.024109,121.557304 
	C246.926849,132.880280 246.944870,144.205109 247.029190,155.528275 
	C247.058334,159.442795 245.375977,162.420502 241.975281,163.823898 
	C237.631882,165.616364 230.909683,163.748642 229.165466,160.543808 
	C228.363617,159.070480 228.053925,157.161697 228.047729,155.448486 
	C227.974289,135.132523 228.000412,114.816216 228.000397,94.000000 
z"/>
<path fill="#E9720E" opacity="1.000000" stroke="none" 
	d="
M90.994537,153.274780 
	C90.736343,161.540100 89.293083,162.996765 81.739952,162.998642 
	C64.581398,163.002914 47.422832,163.012817 30.264301,162.993057 
	C23.990074,162.985825 22.010414,161.010284 22.006971,154.736160 
	C21.991428,126.416229 21.995573,98.096275 22.003235,69.776337 
	C22.005154,62.682285 23.789700,61.006382 31.250534,61.000031 
	C38.226826,60.994091 40.986412,63.559662 40.991856,70.203644 
	C41.011246,93.859108 40.999496,117.514595 40.999538,141.170074 
	C40.999538,142.955994 40.999535,144.741913 40.999535,147.000122 
	C55.261410,147.000122 69.042336,147.064606 82.822014,146.962143 
	C87.140938,146.930054 90.248634,148.135056 90.994537,153.274780 
z"/>
<path fill="#E9720E" opacity="1.000000" stroke="none" 
	d="
M311.052795,105.999664 
	C303.548126,106.731125 300.315186,104.452187 302.177734,96.283493 
	C302.565277,94.583984 305.083618,92.683800 306.969086,92.178345 
	C309.590424,91.475601 312.541168,92.001549 316.000275,92.001549 
	C316.000275,87.453949 315.969025,83.187752 316.007477,78.922173 
	C316.067749,72.230705 318.770721,69.957214 326.528717,70.000046 
	C333.125793,70.036469 334.974365,71.895615 334.996765,78.554504 
	C335.011230,82.851456 334.999481,87.148491 334.999481,92.000320 
	C340.659882,92.000320 345.957520,92.298088 351.205719,91.916153 
	C356.401947,91.538002 357.327942,95.090546 357.892792,98.645264 
	C358.557434,102.827690 355.667572,105.853210 351.301819,105.965721 
	C346.144165,106.098648 340.980469,105.996925 334.999634,105.996925 
	C334.999634,108.374474 334.999634,110.616333 334.999634,112.858192 
	C334.999634,119.354416 334.984344,125.850685 335.002655,132.346848 
	C335.046936,148.067337 341.765350,149.022079 352.240723,147.797318 
	C356.241669,147.329544 358.532501,148.005142 359.785156,151.610916 
	C360.978607,155.046371 358.799957,161.053619 356.058533,162.459061 
	C342.188782,169.569656 323.273376,162.667374 317.816711,148.204590 
	C316.525238,144.781570 316.161804,140.863541 316.078644,137.157333 
	C315.851044,127.017441 316.000244,116.869095 316.000244,106.312828 
	C314.362366,106.198524 312.937988,106.099121 311.052795,105.999664 
z"/>
<path fill="#E9720E" opacity="1.000000" stroke="none" 
	d="
M434.000305,84.018433 
	C436.768097,88.831833 439.463806,93.280121 442.569550,98.405045 
	C445.867950,93.080864 448.967316,88.214645 451.924713,83.263588 
	C454.596832,78.790115 457.407349,74.361427 459.610352,69.657082 
	C461.534393,65.548439 464.139618,63.970539 468.732422,65.406830 
	C468.732422,81.714622 468.732422,98.110481 468.732422,114.752289 
	C466.616760,114.752289 464.676117,114.752289 462.298645,114.752289 
	C462.298645,103.939880 462.298645,93.024857 462.298645,82.109825 
	C461.922455,81.964355 461.546265,81.818878 461.170074,81.673409 
	C457.396240,87.949348 453.623657,94.226036 449.847839,100.500816 
	C448.584259,102.600655 447.324036,104.702667 446.041901,106.791199 
	C444.056061,110.026024 440.868225,109.974113 438.901825,106.660362 
	C434.496063,99.235809 430.115723,91.796135 425.695343,84.380318 
	C425.486145,84.029381 424.990631,83.849136 424.116882,83.222511 
	C424.116882,93.917343 424.116882,104.124748 424.116882,114.662605 
	C421.331390,114.662605 418.951294,114.662605 416.278259,114.662605 
	C416.278259,98.234962 416.278259,81.843292 416.278259,65.414986 
	C420.485992,64.363945 423.346924,64.777069 425.360718,69.421707 
	C427.543976,74.457176 431.017395,78.933281 434.000305,84.018433 
z"/>
<path fill="#E9720E" opacity="1.000000" stroke="none" 
	d="
M458.996521,156.473999 
	C459.002991,168.472229 454.365204,172.992767 442.477753,172.999023 
	C433.852295,173.003555 425.226837,172.999924 416.302582,172.999924 
	C416.302582,156.267914 416.302582,139.896271 416.302582,123.018028 
	C425.707123,123.018028 435.051575,122.287018 444.228882,123.212830 
	C454.482727,124.247238 462.556732,134.376892 452.681580,146.342758 
	C454.884674,149.727890 456.939392,152.885040 458.996521,156.473999 
M450.125427,162.448532 
	C452.039856,156.256500 451.038513,153.189957 445.165619,152.152084 
	C438.320862,150.942444 431.237732,151.081451 424.244873,150.634415 
	C424.244873,156.671188 424.244873,161.602005 424.244873,166.976410 
	C429.425018,166.976410 434.577362,167.823196 439.256195,166.699127 
	C442.777588,165.853134 447.605225,167.933411 450.125427,162.448532 
M434.447021,144.000504 
	C437.528961,143.707092 440.608734,143.387772 443.693420,143.126572 
	C447.874817,142.772522 448.716339,139.368561 448.604187,136.452469 
	C448.470825,132.987015 446.057678,130.251846 442.284760,130.086639 
	C436.352997,129.826874 430.401459,130.017624 424.298218,130.017624 
	C424.298218,134.875641 424.298218,139.255157 424.298218,144.000504 
	C427.554993,144.000504 430.518097,144.000504 434.447021,144.000504 
z"/>
<path fill="#E9720E" opacity="1.000000" stroke="none" 
	d="
M377.999695,41.000023 
	C378.019623,33.171112 378.036041,25.842173 378.071594,18.513327 
	C378.073120,18.209274 378.252991,17.906082 378.445129,17.303310 
	C383.409119,17.303310 388.459198,17.303310 393.756165,17.303310 
	C393.756165,82.057938 393.756165,146.636978 393.756165,211.608002 
	C388.781158,211.608002 383.725464,211.608002 377.999695,211.608002 
	C377.999695,154.966888 377.999695,98.233452 377.999695,41.000023 
M381.000305,199.456757 
	C381.000305,202.556885 381.000305,205.657028 381.000305,208.597290 
	C384.737335,208.597290 387.789032,208.597290 390.744995,208.597290 
	C390.744995,145.609741 390.744995,83.025345 390.744995,20.313347 
	C387.432983,20.313347 384.382477,20.313347 381.000305,20.313347 
	C381.000305,79.907471 381.000305,139.188736 381.000305,199.456757 
z"/>
<path fill="#E9720E" opacity="1.000000" stroke="none" 
	d="
M841.000244,96.900864 
	C839.835266,83.906059 850.441284,75.771706 860.115723,76.254868 
	C871.068604,76.801880 880.407776,82.966820 878.619263,98.858490 
	C868.924133,98.858490 859.166626,98.858490 849.310486,98.858490 
	C851.823120,109.276138 862.257080,111.551666 872.712280,104.051018 
	C874.129456,105.534279 875.594482,107.067680 877.011719,108.551003 
	C873.779907,114.645470 862.986694,117.786751 853.557251,114.699608 
	C846.683105,112.449020 840.614136,105.999634 841.000244,96.900864 
M853.787231,85.050514 
	C851.944580,87.286514 850.101990,89.522514 847.523010,92.652100 
	C856.473328,92.652100 863.634399,92.652100 870.857849,92.652100 
	C869.172791,84.277023 861.911377,80.956299 853.787231,85.050514 
z"/>
<path fill="#E9720E" opacity="1.000000" stroke="none" 
	d="
M566.002930,165.527802 
	C566.000977,168.097946 566.000977,170.239029 566.000977,172.685272 
	C563.644897,172.685272 561.591125,172.685272 559.266357,172.685272 
	C559.266357,155.233826 559.266357,137.854111 559.266357,120.238182 
	C561.400879,120.238182 563.342529,120.238182 565.835327,120.238182 
	C565.835327,130.850601 565.835327,141.552597 565.835327,153.124161 
	C571.178223,148.347626 575.892334,144.345169 580.360840,140.085159 
	C586.024536,134.685638 585.938477,134.595383 594.945129,135.334305 
	C589.429321,140.365356 584.240173,145.098465 579.129883,149.759628 
	C585.255859,157.845901 590.498169,164.765793 596.091003,172.148346 
	C589.631531,174.044281 585.757446,172.760345 582.882751,167.862839 
	C581.242859,165.068939 578.480469,162.941528 576.787109,160.169693 
	C574.239197,155.999100 572.004089,156.556839 569.515808,159.987976 
	C568.302795,161.660599 567.172546,163.393265 566.002930,165.527802 
z"/>
<path fill="#E9720E" opacity="1.000000" stroke="none" 
	d="
M497.031097,172.981873 
	C494.911377,172.650024 493.235046,172.305374 491.730835,171.996109 
	C486.061768,172.332260 480.247711,173.321594 474.552551,172.856155 
	C466.948181,172.234695 464.961029,166.178757 465.161377,161.274734 
	C465.409698,155.195938 470.205505,151.266708 476.797974,151.033752 
	C481.423706,150.870285 486.059906,151.002197 490.652771,151.002197 
	C491.425659,141.279251 483.791779,139.202881 469.214600,145.028870 
	C468.242493,143.247406 467.242615,141.415100 466.209290,139.521500 
	C474.067474,133.679031 482.658752,133.444458 491.504669,136.265320 
	C496.263916,137.782990 498.532440,142.021957 498.816315,146.463120 
	C499.345520,154.743820 498.988068,163.083221 498.893311,171.396988 
	C498.887268,171.926331 497.968597,172.445282 497.031097,172.981873 
M483.996368,166.993500 
	C488.678162,165.537048 491.802460,162.981766 490.715271,157.014526 
	C486.427917,157.014526 482.046570,156.533478 477.864502,157.236984 
	C476.037476,157.544342 473.110809,160.577148 473.362366,161.837723 
	C473.753265,163.796631 476.215240,165.664001 478.222595,166.859543 
	C479.452484,167.592087 481.472687,166.997635 483.996368,166.993500 
z"/>
<path fill="#E9720E" opacity="1.000000" stroke="none" 
	d="
M730.029175,83.944168 
	C726.374756,84.277977 723.090637,84.472771 719.891724,85.101494 
	C718.210205,85.431999 716.677917,86.521660 714.840576,87.379456 
	C713.766052,85.373375 712.868713,83.698120 711.996704,82.070137 
	C718.571716,74.967339 733.713562,74.168777 740.654968,80.446342 
	C742.321533,81.953537 743.754028,84.627747 743.836792,86.820229 
	C744.186157,96.077293 743.984741,105.355148 743.984741,115.428650 
	C741.064148,114.867577 738.780090,114.428780 736.496033,113.989975 
	C731.368896,115.526474 725.857483,116.944351 719.635559,115.060310 
	C713.722900,113.269920 710.378479,108.713005 711.005432,102.186485 
	C711.455811,97.497856 716.206726,93.313721 721.567566,93.026154 
	C724.053894,92.892792 726.553223,93.000572 729.046631,92.999931 
	C731.527954,92.999290 734.009216,92.999786 736.954834,92.999786 
	C736.370361,88.485504 735.617859,84.699974 730.029175,83.944168 
M730.448303,98.999466 
	C728.115479,99.009888 725.708252,98.671867 723.475037,99.148705 
	C721.888306,99.487480 719.678528,100.666237 719.294861,101.937302 
	C718.807800,103.551270 719.582275,107.113144 720.342896,107.270386 
	C724.006897,108.027802 728.064087,108.773994 731.569336,107.889511 
	C735.263733,106.957291 737.452148,103.624107 736.750244,98.999474 
	C734.686646,98.999474 733.031921,98.999474 730.448303,98.999466 
z"/>
<path fill="#E9720E" opacity="1.000000" stroke="none" 
	d="
M606.442383,90.927719 
	C607.739868,102.634514 604.279907,110.452110 595.989868,113.938591 
	C586.303040,118.012497 575.707092,115.695862 570.194824,107.367035 
	C564.422241,98.644814 566.063293,86.723015 574.324646,80.331871 
	C583.838806,72.971527 602.953491,75.287086 606.442383,90.927719 
M598.998840,94.742531 
	C597.585693,87.332741 591.977295,81.997536 586.214050,83.103256 
	C577.962891,84.686310 574.345886,90.640984 575.011292,97.830559 
	C575.539368,103.536407 582.002380,109.339806 587.377930,108.985588 
	C593.957947,108.552002 598.806702,102.960732 598.998840,94.742531 
z"/>
<path fill="#E9720E" opacity="1.000000" stroke="none" 
	d="
M760.930603,114.997040 
	C759.164673,114.998886 757.866577,114.998886 756.285461,114.998886 
	C756.285461,102.260788 756.285461,89.878609 756.285461,77.048004 
	C759.210083,77.781204 762.812012,74.772972 764.087891,78.396362 
	C769.374878,77.826744 774.414917,76.698494 779.411072,76.867905 
	C789.654114,77.215218 792.430298,84.999687 792.895386,92.439362 
	C793.349854,99.708603 792.994202,107.028488 792.994202,114.661293 
	C790.334900,114.661293 787.953430,114.661293 785.000122,114.661293 
	C785.000122,108.208237 785.020935,101.772423 784.994812,95.336800 
	C784.963257,87.577026 781.718567,83.988770 774.803040,83.999695 
	C767.484497,84.011253 764.030762,87.671692 764.003479,95.482864 
	C763.984924,100.805641 764.156982,106.136765 763.880371,111.445221 
	C763.816589,112.668350 762.265198,113.813934 760.930603,114.997040 
z"/>
<path fill="#E9720E" opacity="1.000000" stroke="none" 
	d="
M674.154419,90.671799 
	C673.533386,98.797310 673.023438,106.522835 672.488037,114.632141 
	C670.711731,114.632141 668.663208,114.632141 666.303833,114.632141 
	C666.303833,102.307335 666.303833,89.911011 666.303833,77.257309 
	C668.335815,77.257309 670.268188,77.257309 672.664429,77.257309 
	C672.842285,78.200256 673.055176,79.329140 673.300537,80.630013 
	C680.071106,76.264961 686.836304,74.718910 694.297546,78.047035 
	C699.035583,80.160477 701.578186,84.013756 701.842102,88.706375 
	C702.325134,97.295982 701.979614,105.932190 701.979614,114.769623 
	C699.247498,114.769623 696.973633,114.769623 694.000366,114.769623 
	C694.000366,108.379265 693.854980,101.945602 694.047668,95.522079 
	C694.194519,90.625183 693.886230,86.054428 688.395691,84.216187 
	C682.599792,82.275703 677.692810,84.509277 674.154419,90.671799 
z"/>
<path fill="#E9720E" opacity="1.000000" stroke="none" 
	d="
M113.023796,163.999817 
	C111.248688,163.999771 109.940605,163.999771 108.231560,163.999771 
	C107.069855,147.048325 105.927620,130.380829 104.759842,113.340683 
	C110.780334,113.340683 116.296227,113.340683 121.615723,113.340683 
	C120.788956,130.189590 119.975304,146.771149 119.129898,163.999878 
	C117.017708,163.999878 115.254265,163.999878 113.023796,163.999817 
z"/>
<path fill="#E9720E" opacity="1.000000" stroke="none" 
	d="
M546.999390,168.804260 
	C547.250183,176.225052 542.127502,171.651276 539.000305,173.477402 
	C539.000305,165.636490 538.851257,158.535156 539.052612,151.443756 
	C539.187439,146.694946 537.465942,143.313538 532.839478,142.097290 
	C527.310486,140.643845 522.093445,142.643723 520.075378,147.107697 
	C518.902710,149.701508 518.260132,152.691849 518.086914,155.546722 
	C517.764954,160.852875 517.965759,166.190506 517.928284,171.514893 
	C517.926147,171.818924 517.738586,172.121643 517.542358,172.709320 
	C515.582520,172.709320 513.535400,172.709320 511.255310,172.709320 
	C511.255310,160.159134 511.255310,147.767471 511.255310,134.939957 
	C513.993347,135.833755 518.167053,132.567627 518.200073,138.732330 
	C523.256531,135.082733 528.685303,134.080627 534.737732,134.918381 
	C541.963745,135.918579 546.857117,140.861542 546.976990,148.357269 
	C547.083374,155.012192 546.999573,161.670135 546.999390,168.804260 
z"/>
<path fill="#E9720E" opacity="1.000000" stroke="none" 
	d="
M833.141235,79.667213 
	C834.679016,81.590691 835.951843,83.244270 837.364319,85.079330 
	C835.251160,86.467804 833.511841,87.610596 831.587585,88.874931 
	C827.775330,85.155800 823.893921,82.192429 817.903320,83.887924 
	C812.727966,85.352676 810.295044,88.921478 809.119324,93.463203 
	C807.806580,98.534340 810.404968,104.284042 814.513977,106.792595 
	C818.962891,109.508591 824.088013,109.925934 827.650391,106.459549 
	C831.436096,102.775902 833.814270,103.589745 836.741821,106.819862 
	C834.394714,112.765350 827.792358,116.518532 820.277771,115.992500 
	C802.012878,114.713943 797.359131,96.883980 803.572876,85.688202 
	C808.160767,77.421921 820.948792,73.997581 830.238892,78.082916 
	C831.136963,78.477844 831.997986,78.957169 833.141235,79.667213 
z"/>
<path fill="#E9720E" opacity="1.000000" stroke="none" 
	d="
M503.280334,109.652664 
	C497.256683,100.227119 497.141479,91.478783 502.954712,83.308960 
	C509.569855,74.012199 529.014771,73.481850 533.772400,84.479034 
	C531.409790,87.934212 528.811707,88.435616 525.287476,85.790520 
	C519.572021,81.500908 514.040649,82.979446 509.400146,88.110023 
	C505.283936,92.660873 505.206268,100.765778 509.710266,105.021538 
	C513.223755,108.341415 519.418152,110.869835 525.209900,106.529007 
	C527.064758,105.138802 529.442810,101.896576 532.220642,105.742332 
	C534.137512,108.396210 532.015015,112.203506 527.674072,113.986000 
	C518.770813,117.641884 510.799469,115.832924 503.280334,109.652664 
z"/>
<path fill="#E9720E" opacity="1.000000" stroke="none" 
	d="
M635.360596,69.074936 
	C634.062012,69.061821 633.027283,68.862869 632.042358,68.520630 
	C626.684753,66.659042 623.717163,69.689880 624.316101,76.958282 
	C627.684570,76.958282 631.102295,76.958282 634.752197,76.958282 
	C634.752197,79.037476 634.752197,80.643303 634.752197,82.761734 
	C631.463501,82.761734 628.069031,82.761734 624.161438,82.761734 
	C624.161438,93.634773 624.161438,104.016563 624.161438,114.693954 
	C621.275940,114.693954 618.897461,114.693954 616.013550,114.693954 
	C616.013550,104.190559 616.013550,93.797905 616.013550,83.201080 
	C613.921753,83.072769 612.308472,82.973808 610.352234,82.853821 
	C610.352234,81.064491 610.352234,79.345123 610.352234,77.259033 
	C612.013550,77.103905 613.760193,76.940804 615.841370,76.746460 
	C615.826477,69.160469 618.223206,62.944042 626.409790,61.408482 
	C629.300476,60.866272 632.659973,61.494137 635.437805,62.552471 
	C636.194214,62.840679 635.614136,66.636765 635.360596,69.074936 
z"/>
<path fill="#E9720E" opacity="1.000000" stroke="none" 
	d="
M105.962166,51.289040 
	C105.229088,48.895634 104.525864,46.923058 103.635307,44.425003 
	C105.258919,44.325802 106.446304,44.253250 108.003540,44.158100 
	C108.003540,41.478428 108.050598,38.536221 107.991127,35.596176 
	C107.923386,32.247433 109.519966,30.573193 112.120491,30.502123 
	C114.635551,33.997936 116.857353,37.091137 119.088348,40.177696 
	C119.268204,40.426521 119.472008,40.748619 119.731461,40.834194 
	C121.104118,41.286949 122.498177,41.674847 123.884811,42.085228 
	C123.310905,43.593002 122.590050,45.063015 122.191048,46.615730 
	C121.060432,51.015484 119.352997,55.424286 119.197220,59.875870 
	C119.018631,64.979393 117.105049,66.668320 112.351921,66.022728 
	C111.211617,65.867851 110.032356,65.999725 108.467743,65.999725 
	C107.636871,61.203930 106.814445,56.456898 105.962166,51.289040 
z"/>
<path fill="#E9720E" opacity="1.000000" stroke="none" 
	d="
M546.930664,114.996986 
	C545.163452,114.998863 543.863953,114.998863 542.283752,114.998863 
	C542.283752,102.240334 542.283752,89.844032 542.283752,76.935524 
	C545.159668,78.124115 549.618164,74.110542 550.206604,79.965302 
	C554.075134,78.549820 558.094238,77.079247 562.656982,75.409760 
	C562.656982,78.544777 562.656982,80.936882 562.656982,83.356926 
	C552.229492,85.675774 550.001160,88.493553 549.999756,99.447327 
	C549.999207,103.612251 550.171814,107.789497 549.878174,111.933678 
	C549.802063,113.007332 548.264648,113.977440 546.930664,114.996986 
z"/>
<path fill="#E9720E" opacity="1.000000" stroke="none" 
	d="
M653.999756,92.004807 
	C653.999756,99.798378 653.999756,107.092667 653.999756,114.690468 
	C651.280823,114.690468 648.901184,114.690468 646.255859,114.690468 
	C646.255859,102.192375 646.255859,89.810707 646.255859,77.215027 
	C648.778259,77.215027 651.050659,77.215027 653.999756,77.215027 
	C653.999756,81.983757 653.999756,86.744644 653.999756,92.004807 
z"/>
<path fill="#E9720E" opacity="1.000000" stroke="none" 
	d="
M489.999939,85.070297 
	C489.999939,95.181076 489.999939,104.802933 489.999939,114.709457 
	C487.245209,114.709457 484.864044,114.709457 482.239319,114.709457 
	C482.239319,102.279594 482.239319,90.021187 482.239319,77.381195 
	C484.588501,77.381195 486.972046,77.381195 489.999939,77.381195 
	C489.999939,79.709442 489.999939,82.145409 489.999939,85.070297 
z"/>
<path fill="#E9720E" opacity="1.000000" stroke="none" 
	d="
M110.004761,82.000008 
	C116.806389,82.000008 123.108986,82.000008 129.696716,82.000008 
	C129.696716,83.732346 129.696716,85.115265 129.696716,86.750923 
	C118.337845,86.750923 107.067459,86.750923 95.375153,86.750923 
	C95.233551,85.451271 95.082329,84.063240 94.857536,82.000008 
	C99.950615,82.000008 104.728172,82.000008 110.004761,82.000008 
z"/>
<path fill="#E9720E" opacity="1.000000" stroke="none" 
	d="
M124.666153,78.989281 
	C116.044518,78.997169 107.893555,78.997169 99.367920,78.997169 
	C99.220497,77.406601 99.091965,76.019814 98.932823,74.302887 
	C108.321732,74.302887 117.399986,74.302887 127.775101,74.302887 
	C126.688980,76.228935 125.912903,77.605164 124.666153,78.989281 
z"/>
<path fill="#E9720E" opacity="1.000000" stroke="none" 
	d="
M117.815926,103.999962 
	C125.250214,103.751717 120.617668,108.890709 122.305626,111.682922 
	C116.332199,111.682922 110.943993,111.682922 105.275375,111.682922 
	C105.275375,109.338310 105.275375,107.073318 105.275375,103.999672 
	C109.201416,103.999672 113.270706,103.999672 117.815926,103.999962 
z"/>
<path fill="#E9720E" opacity="1.000000" stroke="none" 
	d="
M112.008080,90.000313 
	C116.137283,90.000313 119.774597,90.000313 123.697624,90.000313 
	C123.697624,91.733681 123.697624,93.116608 123.697624,94.751663 
	C116.336754,94.751663 109.063835,94.751663 101.371979,94.751663 
	C101.231857,93.445168 101.083015,92.057396 100.862389,90.000313 
	C104.631210,90.000313 108.073700,90.000313 112.008080,90.000313 
z"/>
<path fill="#E9720E" opacity="1.000000" stroke="none" 
	d="
M115.946915,71.999687 
	C111.623291,71.998718 107.776665,72.185883 103.968758,71.884247 
	C102.798538,71.791565 101.734222,70.361984 100.621422,69.544571 
	C100.885513,69.106445 101.149612,68.668320 101.413704,68.230194 
	C109.026588,68.230194 116.639473,68.230194 124.548798,68.230194 
	C125.483337,70.728653 125.131653,72.191345 121.935501,72.015602 
	C120.108505,71.915146 118.271370,71.998878 115.946915,71.999687 
z"/>
<path fill="#E9720E" opacity="1.000000" stroke="none" 
	d="
M113.949791,97.000015 
	C116.742599,97.000015 119.051605,97.000015 121.732315,97.000015 
	C121.812859,98.682037 121.879135,100.066208 121.958939,101.732811 
	C115.579620,101.732811 109.504875,101.732811 103.221626,101.732811 
	C103.221626,100.245354 103.221626,98.963135 103.221626,97.000015 
	C106.594879,97.000015 110.030434,97.000015 113.949791,97.000015 
z"/>
<path fill="#E9720E" opacity="1.000000" stroke="none" 
	d="
M649.985901,61.002274 
	C653.776367,60.964191 655.741333,62.985332 654.781799,65.915131 
	C654.121460,67.931229 651.704163,69.964401 649.624756,70.668327 
	C648.614685,71.010269 645.662598,68.579865 645.203186,66.949783 
	C644.322998,63.826748 645.393799,60.985764 649.985901,61.002274 
z"/>
<path fill="#E9720E" opacity="1.000000" stroke="none" 
	d="
M490.779266,63.544418 
	C490.165344,65.984413 489.905243,68.629112 488.447723,69.893852 
	C487.478394,70.734955 484.461334,70.155891 482.959412,69.235603 
	C480.339447,67.630241 479.936584,64.744423 482.116669,62.541294 
	C484.907776,59.720737 487.980438,60.253914 490.779266,63.544418 
z"/>
<path fill="#000000" opacity="1.000000" stroke="none" 
	d="
M184.747498,141.748657 
	C178.995499,146.842529 172.790543,148.377960 165.978973,145.422806 
	C158.589478,142.216919 155.671112,135.675797 155.116684,128.269745 
	C154.541702,120.588875 156.088394,113.406265 163.006775,108.409996 
	C173.734100,100.663010 187.972656,107.403801 189.817307,120.622620 
	C190.830780,127.885056 190.804993,135.507690 184.747498,141.748657 
z"/>
<path fill="#000000" opacity="1.000000" stroke="none" 
	d="
M450.030884,162.850601 
	C447.605225,167.933411 442.777588,165.853134 439.256195,166.699127 
	C434.577362,167.823196 429.425018,166.976410 424.244873,166.976410 
	C424.244873,161.602005 424.244873,156.671188 424.244873,150.634415 
	C431.237732,151.081451 438.320862,150.942444 445.165619,152.152084 
	C451.038513,153.189957 452.039856,156.256500 450.030884,162.850601 
z"/>
<path fill="#000000" opacity="1.000000" stroke="none" 
	d="
M433.964111,144.000504 
	C430.518097,144.000504 427.554993,144.000504 424.298218,144.000504 
	C424.298218,139.255157 424.298218,134.875641 424.298218,130.017624 
	C430.401459,130.017624 436.352997,129.826874 442.284760,130.086639 
	C446.057678,130.251846 448.470825,132.987015 448.604187,136.452469 
	C448.716339,139.368561 447.874817,142.772522 443.693420,143.126572 
	C440.608734,143.387772 437.528961,143.707092 433.964111,144.000504 
z"/>
<path fill="#000000" opacity="1.000000" stroke="none" 
	d="
M381.000305,198.963379 
	C381.000305,139.188736 381.000305,79.907471 381.000305,20.313347 
	C384.382477,20.313347 387.432983,20.313347 390.744995,20.313347 
	C390.744995,83.025345 390.744995,145.609741 390.744995,208.597290 
	C387.789032,208.597290 384.737335,208.597290 381.000305,208.597290 
	C381.000305,205.657028 381.000305,202.556885 381.000305,198.963379 
z"/>
<path fill="#000000" opacity="1.000000" stroke="none" 
	d="
M854.168701,84.964432 
	C861.911377,80.956299 869.172791,84.277023 870.857849,92.652100 
	C863.634399,92.652100 856.473328,92.652100 847.523010,92.652100 
	C850.101990,89.522514 851.944580,87.286514 854.168701,84.964432 
z"/>
<path fill="#000000" opacity="1.000000" stroke="none" 
	d="
M483.567200,166.996307 
	C481.472687,166.997635 479.452484,167.592087 478.222595,166.859543 
	C476.215240,165.664001 473.753265,163.796631 473.362366,161.837723 
	C473.110809,160.577148 476.037476,157.544342 477.864502,157.236984 
	C482.046570,156.533478 486.427917,157.014526 490.715271,157.014526 
	C491.802460,162.981766 488.678162,165.537048 483.567200,166.996307 
z"/>
<path fill="#000000" opacity="1.000000" stroke="none" 
	d="
M730.912720,98.999466 
	C733.031921,98.999474 734.686646,98.999474 736.750244,98.999474 
	C737.452148,103.624107 735.263733,106.957291 731.569336,107.889511 
	C728.064087,108.773994 724.006897,108.027802 720.342896,107.270386 
	C719.582275,107.113144 718.807800,103.551270 719.294861,101.937302 
	C719.678528,100.666237 721.888306,99.487480 723.475037,99.148705 
	C725.708252,98.671867 728.115479,99.009888 730.912720,98.999466 
z"/>
<path fill="#000000" opacity="1.000000" stroke="none" 
	d="
M598.999390,95.163208 
	C598.806702,102.960732 593.957947,108.552002 587.377930,108.985588 
	C582.002380,109.339806 575.539368,103.536407 575.011292,97.830559 
	C574.345886,90.640984 577.962891,84.686310 586.214050,83.103256 
	C591.977295,81.997536 597.585693,87.332741 598.999390,95.163208 
z"/>
</svg>